<svg xmlns="http://www.w3.org/2000/svg" width="367.524" height="56.004" viewBox="0 0 367.524 56.004">
  <g id="_5Stars-Teal" data-name="5Stars-Teal" transform="translate(-913 -7589)">
    <path id="Polygon_2" data-name="Polygon 2" d="M28.853,1.842a1,1,0,0,1,1.8,0l7.941,16.275a1,1,0,0,0,.765.552l18.078,2.442a1,1,0,0,1,.554,1.717L44.827,35.307a1,1,0,0,0-.3.905l3.238,17.761a1,1,0,0,1-1.453,1.062l-16.1-8.55a1,1,0,0,0-.938,0l-16.1,8.55a1,1,0,0,1-1.453-1.062l3.238-17.761a1,1,0,0,0-.3-.905L1.516,22.829a1,1,0,0,1,.554-1.717L20.147,18.67a1,1,0,0,0,.765-.552Z" transform="translate(913 7589)" fill="#1e404a"/>
    <path id="Polygon_3" data-name="Polygon 3" d="M28.853,1.842a1,1,0,0,1,1.8,0l7.941,16.275a1,1,0,0,0,.765.552l18.078,2.442a1,1,0,0,1,.554,1.717L44.827,35.307a1,1,0,0,0-.3.905l3.238,17.761a1,1,0,0,1-1.453,1.062l-16.1-8.55a1,1,0,0,0-.938,0l-16.1,8.55a1,1,0,0,1-1.453-1.062l3.238-17.761a1,1,0,0,0-.3-.905L1.516,22.829a1,1,0,0,1,.554-1.717L20.147,18.67a1,1,0,0,0,.765-.552Z" transform="translate(990.005 7589)" fill="#1e404a"/>
    <path id="Polygon_4" data-name="Polygon 4" d="M28.853,1.842a1,1,0,0,1,1.8,0l7.941,16.275a1,1,0,0,0,.765.552l18.078,2.442a1,1,0,0,1,.554,1.717L44.827,35.307a1,1,0,0,0-.3.905l3.238,17.761a1,1,0,0,1-1.453,1.062l-16.1-8.55a1,1,0,0,0-.938,0l-16.1,8.55a1,1,0,0,1-1.453-1.062l3.238-17.761a1,1,0,0,0-.3-.905L1.516,22.829a1,1,0,0,1,.554-1.717L20.147,18.67a1,1,0,0,0,.765-.552Z" transform="translate(1067.01 7589)" fill="#1e404a"/>
    <path id="Polygon_5" data-name="Polygon 5" d="M28.853,1.842a1,1,0,0,1,1.8,0l7.941,16.275a1,1,0,0,0,.765.552l18.078,2.442a1,1,0,0,1,.554,1.717L44.827,35.307a1,1,0,0,0-.3.905l3.238,17.761a1,1,0,0,1-1.453,1.062l-16.1-8.55a1,1,0,0,0-.938,0l-16.1,8.55a1,1,0,0,1-1.453-1.062l3.238-17.761a1,1,0,0,0-.3-.905L1.516,22.829a1,1,0,0,1,.554-1.717L20.147,18.67a1,1,0,0,0,.765-.552Z" transform="translate(1144.015 7589)" fill="#1e404a"/>
    <path id="Polygon_6" data-name="Polygon 6" d="M28.853,1.842a1,1,0,0,1,1.8,0l7.941,16.275a1,1,0,0,0,.765.552l18.078,2.442a1,1,0,0,1,.554,1.717L44.827,35.307a1,1,0,0,0-.3.905l3.238,17.761a1,1,0,0,1-1.453,1.062l-16.1-8.55a1,1,0,0,0-.938,0l-16.1,8.55a1,1,0,0,1-1.453-1.062l3.238-17.761a1,1,0,0,0-.3-.905L1.516,22.829a1,1,0,0,1,.554-1.717L20.147,18.67a1,1,0,0,0,.765-.552Z" transform="translate(1221.02 7589)" fill="#1e404a"/>
  </g>
</svg>
