<?xml version="1.0" encoding="utf-8"?>
<!-- Generator: Adobe Illustrator 22.1.0, SVG Export Plug-In . SVG Version: 6.00 Build 0)  -->
<svg version="1.1" id="Layer_1" xmlns="http://www.w3.org/2000/svg" xmlns:xlink="http://www.w3.org/1999/xlink" x="0px" y="0px"
	 viewBox="0 0 1000 1000" style="enable-background:new 0 0 1000 1000;" xml:space="preserve">
<style type="text/css">
	.st0{clip-path:url(#SVGID_2_);}
	.st1{fill:none;stroke:#F3F2F2;stroke-width:3;stroke-miterlimit:10;}
	.st2{clip-path:url(#SVGID_4_);}
	.st3{clip-path:url(#SVGID_6_);}
	.st4{clip-path:url(#SVGID_8_);}
	.st5{clip-path:url(#SVGID_10_);}
	.st6{clip-path:url(#SVGID_12_);}
	.st7{clip-path:url(#SVGID_14_);}
	.st8{clip-path:url(#SVGID_16_);}
	.st9{clip-path:url(#SVGID_18_);fill:none;}
	.st10{clip-path:url(#SVGID_18_);}
	.st11{fill:#F9F7F7;}
	.st12{clip-path:url(#SVGID_20_);}
	.st13{clip-path:url(#SVGID_22_);fill:none;}
	.st14{clip-path:url(#SVGID_22_);}
	.st15{clip-path:url(#SVGID_24_);}
	.st16{clip-path:url(#SVGID_26_);}
	.st17{fill:#F3F2F2;}
	.st18{clip-path:url(#SVGID_28_);}
	.st19{clip-path:url(#SVGID_30_);}
	.st20{clip-path:url(#SVGID_32_);}
</style>
<g>
	<defs>
		<path id="SVGID_17_" d="M550.9,554.2c-11,60.6,23.9,150.9,23.9,150.9s168.8,39.4,137.2,32.6c-0.2,0,87-68.6,105-119.8
			c20-56.6-41.3-266.9-57.4-318.3c-1.6-5.3-8.5-6.9-12.4-3C709.3,334.5,561.5,495.8,550.9,554.2z"/>
	</defs>
	<clipPath id="SVGID_2_">
		<use xlink:href="#SVGID_17_"  style="overflow:visible;"/>
	</clipPath>
	<path style="clip-path:url(#SVGID_2_);fill:none;" d="M691.7,907.9c19.5-40.6,18.1-50.8,19.9-94.6c0.2-5.2-1.9-7.2-6.7-8.3
		c-41.4-9.7-82.8-19.5-124.1-29.4c-4.4-1.1-7.4-0.5-9.3,3.9c-18.8,41.6-27.4,51.4-26.3,97.9c0.5,23.9,7.5,45.4,26.9,61.3
		c36.4,29.9,90.4,20.1,113.7-20.7C687.8,914.5,689.9,911,691.7,907.9z"/>
	<g class="st0">
		<path class="st11" d="M1138.5,232.6c-22.4-14.5-34.8-38.6-53.5-56.9c-10.4-10.1-22.5-17.1-37-19.1c-13.3-1.8-26.8-0.1-40.1-1
			c-13.3-0.9-25-4.6-35.9-12.5c-13.2-9.6-24.9-21.7-35.8-33.7c-10.7-11.8-19.7-26-32.7-35.4c-13.3-9.6-29.8-9.9-45.5-11.2
			c-17.7-1.5-34.1-6.5-49.8-14.7c-15.5-8.1-31.3-18.4-44.5-30c-2.6-2.3,0.5-7.1,3.6-5.2c14.3,8.8,27.1,19.6,41.9,27.7
			c14.3,7.8,29.4,13.1,45.5,14.8c14.9,1.6,30.4,1.3,44.3,7.7c13.1,6.1,22,17.7,31,28.6c10.7,13.1,22.3,25.4,34.9,36.8
			c12.3,11.2,24.7,18.9,41.5,20.5c13.2,1.2,26.6,0,39.8,1.6c12.3,1.5,23.5,6,33.2,13.6c23.8,18.8,35.5,48.9,60.4,66.6
			C1140.8,231.5,1139.6,233.2,1138.5,232.6z"/>
		<path class="st11" d="M1155.1,200.4c-22.4-14.5-34.8-38.6-53.5-56.9c-10.4-10.1-22.5-17.1-37-19.1c-13.3-1.8-26.8-0.1-40.1-1
			c-13.3-0.9-25-4.6-35.9-12.5c-13.2-9.6-24.9-21.7-35.8-33.7c-10.7-11.8-19.7-26-32.7-35.4c-13.3-9.6-29.8-9.9-45.5-11.2
			c-17.7-1.5-34.1-6.5-49.8-14.7c-15.5-8.1-31.3-18.4-44.5-30c-2.6-2.3,0.5-7.1,3.6-5.2c14.3,8.8,27.1,19.6,41.9,27.7
			c14.3,7.8,29.4,13.1,45.5,14.8c14.9,1.6,30.4,1.3,44.3,7.7c13.1,6.1,22,17.7,31,28.6C957.4,72.7,969,85,981.5,96.4
			c12.3,11.2,24.7,18.9,41.5,20.5c13.2,1.2,26.6,0,39.8,1.6c12.3,1.5,23.5,6,33.2,13.6c23.8,18.8,35.5,48.9,60.4,66.6
			C1157.4,199.4,1156.2,201.1,1155.1,200.4z"/>
		<path class="st11" d="M1105.4,296.9c-22.4-14.5-34.8-38.6-53.5-56.9c-10.4-10.1-22.5-17.1-37-19.1c-13.3-1.8-26.8-0.1-40.1-1
			c-13.3-0.9-25-4.6-35.9-12.5c-13.2-9.6-24.9-21.7-35.8-33.7c-10.7-11.8-19.7-26-32.7-35.4c-13.3-9.6-29.8-9.9-45.5-11.2
			c-17.7-1.5-34.1-6.5-49.8-14.7c-15.5-8.1-31.3-18.4-44.5-30c-2.6-2.3,0.5-7.1,3.6-5.2c14.3,8.8,27.1,19.6,41.9,27.7
			c14.3,7.8,29.4,13.1,45.5,14.8c14.9,1.6,30.4,1.3,44.3,7.7c13.1,6.1,22,17.7,31,28.6c10.7,13.1,22.3,25.4,34.9,36.8
			c12.3,11.2,24.7,18.9,41.5,20.5c13.2,1.2,26.6,0,39.8,1.6c12.3,1.5,23.5,6,33.2,13.6c23.8,18.8,35.5,48.9,60.4,66.6
			C1107.6,295.8,1106.4,297.5,1105.4,296.9z"/>
		<path class="st11" d="M1122,264.7c-22.4-14.5-34.8-38.6-53.5-56.9c-10.4-10.1-22.5-17.1-37-19.1c-13.3-1.8-26.8-0.1-40.1-1
			c-13.3-0.9-25-4.6-35.9-12.5c-13.2-9.6-24.9-21.7-35.8-33.7c-10.7-11.8-19.7-26-32.7-35.4c-13.3-9.6-29.8-9.9-45.5-11.2
			c-17.7-1.5-34.1-6.5-49.8-14.7c-15.5-8.1-31.3-18.4-44.5-30c-2.6-2.3,0.5-7.1,3.6-5.2c14.3,8.8,27.1,19.6,41.9,27.7
			c14.3,7.8,29.4,13.1,45.5,14.8c14.9,1.6,30.4,1.3,44.3,7.7c13.1,6.1,22,17.7,31,28.6c10.7,13.1,22.3,25.4,34.9,36.8
			c12.3,11.2,24.7,18.9,41.5,20.5c13.2,1.2,26.6,0,39.8,1.6c12.3,1.5,23.5,6,33.2,13.6c23.8,18.8,35.5,48.9,60.4,66.6
			C1124.2,263.6,1123,265.4,1122,264.7z"/>
		<path class="st11" d="M981.7,285.1c-13.3-1.8-26.8-0.1-40.1-1c-13.3-0.9-25-4.6-35.9-12.5c-13.2-9.6-24.9-21.7-35.8-33.7
			c-10.7-11.8-19.7-26-32.7-35.4c-13.3-9.6-29.8-9.9-45.5-11.2c-17.7-1.5-34.1-6.5-49.8-14.7c-15.5-8.1-31.3-18.4-44.5-30
			c-2.6-2.3,0.5-7.1,3.6-5.2c14.3,8.8,27.1,19.6,41.9,27.7c14.3,7.8,29.4,13.1,45.5,14.8c14.9,1.6,30.4,1.3,44.3,7.7
			c13.1,6.1,22,17.7,31,28.6c10.7,13.1,22.3,25.4,34.9,36.8c12.3,11.2,24.7,18.9,41.5,20.5c13.2,1.2,26.6,0,39.8,1.6
			c12.3,1.5,23.5,6,33.2,13.6c23.8,18.8,35.5,48.9,60.4,66.6c1,0.7-0.2,2.4-1.2,1.8c-22.4-14.5-34.8-38.6-53.5-56.9
			C1008.3,294.1,996.2,287.1,981.7,285.1z"/>
		<path class="st11" d="M1088.8,329c-22.4-14.5-34.8-38.6-53.5-56.9c-10.4-10.1-22.5-17.1-37-19.1c-13.3-1.8-26.8-0.1-40.1-1
			c-13.3-0.9-25-4.6-35.9-12.5c-13.2-9.6-24.9-21.7-35.8-33.7c-10.7-11.8-19.7-26-32.7-35.4c-13.3-9.6-29.8-9.9-45.5-11.2
			c-17.7-1.5-34.1-6.5-49.8-14.7c-15.5-8.1-31.3-18.4-44.5-30c-2.6-2.3,0.5-7.1,3.6-5.2c14.3,8.8,27.1,19.6,41.9,27.7
			c14.3,7.8,29.4,13.1,45.5,14.8c14.9,1.6,30.4,1.3,44.3,7.7c13.1,6.1,22,17.7,31,28.6c10.7,13.1,22.3,25.4,34.9,36.8
			c12.3,11.2,24.7,18.9,41.5,20.5c13.2,1.2,26.6,0,39.8,1.6c12.3,1.5,23.5,6,33.2,13.6c23.8,18.8,35.5,48.9,60.4,66.6
			C1091,327.9,1089.8,329.7,1088.8,329z"/>
		<path class="st11" d="M940.9,345.5c-13.3-1.8-26.8-0.1-40.1-1c-13.3-0.9-25-4.6-35.9-12.5c-13.2-9.6-24.9-21.7-35.8-33.7
			c-10.7-11.8-19.7-26-32.7-35.4c-13.3-9.6-29.8-9.9-45.5-11.2c-17.7-1.5-34.1-6.5-49.8-14.7c-15.5-8.1-31.3-18.4-44.5-30
			c-2.6-2.3,0.5-7.1,3.6-5.2c14.3,8.8,27.1,19.6,41.9,27.7c14.3,7.8,29.4,13.1,45.5,14.8c14.9,1.6,30.4,1.3,44.3,7.7
			c13.1,6.1,22,17.7,31,28.6c10.7,13.1,22.3,25.4,34.9,36.8c12.3,11.2,24.7,18.9,41.5,20.5c13.2,1.2,26.6,0,39.8,1.6
			c12.3,1.5,23.5,6,33.2,13.6c23.8,18.8,35.5,48.9,60.4,66.6c1,0.7-0.2,2.4-1.2,1.8c-22.4-14.5-34.8-38.6-53.5-56.9
			C967.5,354.5,955.4,347.5,940.9,345.5z"/>
		<path class="st11" d="M764.2,212.2c14.9,1.6,30.4,1.3,44.3,7.7c13.1,6.1,22,17.7,31,28.6c10.7,13.1,22.3,25.4,34.9,36.8
			c12.3,11.2,24.7,18.9,41.5,20.5c13.2,1.2,26.6,0,39.8,1.6c12.3,1.5,23.5,6,33.2,13.6c23.8,18.8,35.5,48.9,60.4,66.6
			c1,0.7-0.2,2.4-1.2,1.8c-22.4-14.5-34.8-38.6-53.5-56.9c-10.4-10.1-22.5-17.1-37-19.1c-13.3-1.8-26.8-0.1-40.1-1
			c-13.3-0.9-25-4.6-35.9-12.5c-13.2-9.6-24.9-21.7-35.8-33.7c-10.7-11.8-19.7-26-32.7-35.4c-13.3-9.6-29.8-9.9-45.5-11.2
			c-17.7-1.5-34.1-6.5-49.8-14.7c-15.5-8.1-31.3-18.4-44.5-30c-2.6-2.3,0.5-7.1,3.6-5.2c14.3,8.8,27.1,19.6,41.9,27.7
			C733,205.2,748,210.5,764.2,212.2z"/>
		<path class="st11" d="M940.5,426.7c-10.4-10.1-22.5-17.1-37-19.1c-13.3-1.8-26.8-0.1-40.1-1c-13.3-0.9-25-4.6-35.9-12.5
			c-13.2-9.6-24.9-21.7-35.8-33.7C781,348.7,772,334.4,759,325c-13.3-9.6-29.8-9.9-45.5-11.2c-17.7-1.5-34.1-6.5-49.8-14.7
			c-15.5-8.1-31.3-18.4-44.5-30c-2.6-2.3,0.5-7.1,3.6-5.2c14.3,8.8,27.1,19.6,41.9,27.7c14.3,7.8,29.4,13.1,45.5,14.8
			c14.9,1.6,30.4,1.3,44.3,7.7c13.1,6.1,22,17.7,31,28.6c10.7,13.1,22.3,25.4,34.9,36.8c12.3,11.2,24.7,18.9,41.5,20.5
			c13.2,1.2,26.6,0,39.8,1.6c12.3,1.5,23.5,6,33.2,13.6c23.8,18.8,35.5,48.9,60.4,66.6c1,0.7-0.2,2.4-1.2,1.8
			C971.6,469.1,959.2,445,940.5,426.7z"/>
		<path class="st11" d="M726.8,274.4c14.9,1.6,30.4,1.3,44.3,7.7c13.1,6.1,22,17.7,31,28.6c10.7,13.1,22.3,25.4,34.9,36.8
			c12.3,11.2,24.7,18.9,41.5,20.5c13.2,1.2,26.6,0,39.8,1.6c12.3,1.5,23.5,6,33.2,13.6c23.8,18.8,35.5,48.9,60.4,66.6
			c1,0.7-0.2,2.4-1.2,1.8c-22.4-14.5-34.8-38.6-53.5-56.9c-10.4-10.1-22.5-17.1-37-19.1c-13.3-1.8-26.8-0.1-40.1-1
			c-13.3-0.9-25-4.6-35.9-12.5c-13.2-9.6-24.9-21.7-35.8-33.7c-10.7-11.8-19.7-26-32.7-35.4c-13.3-9.6-29.8-9.9-45.5-11.2
			c-17.7-1.5-34.1-6.5-49.8-14.7c-15.5-8.1-31.3-18.4-44.5-30c-2.6-2.3,0.5-7.1,3.6-5.2c14.3,8.8,27.1,19.6,41.9,27.7
			C695.5,267.3,710.6,272.6,726.8,274.4z"/>
		<path class="st11" d="M960.8,547.9c-22.4-14.5-34.8-38.6-53.5-56.9c-10.4-10.1-22.5-17.1-37-19.1c-13.3-1.8-26.8-0.1-40.1-1
			c-13.3-0.9-25-4.6-35.9-12.5c-13.2-9.6-24.9-21.7-35.8-33.7c-10.7-11.8-19.7-26-32.7-35.4c-13.3-9.6-29.8-9.9-45.5-11.2
			c-17.7-1.5-34.1-6.5-49.8-14.7c-15.5-8.1-31.3-18.4-44.5-30c-2.6-2.3,0.5-7.1,3.6-5.2c14.3,8.8,27.1,19.6,41.9,27.7
			c14.3,7.8,29.4,13.1,45.5,14.8c14.9,1.6,30.4,1.3,44.3,7.7c13.1,6.1,22,17.7,31,28.6c10.7,13.1,22.3,25.4,34.9,36.8
			c12.3,11.2,24.7,18.9,41.5,20.5c13.2,1.2,26.6,0,39.8,1.6c12.3,1.5,23.5,6,33.2,13.6c23.8,18.8,35.5,48.9,60.4,66.6
			C963,546.8,961.8,548.6,960.8,547.9z"/>
		<path class="st11" d="M977.4,515.8c-22.4-14.5-34.8-38.6-53.5-56.9c-10.4-10.1-22.5-17.1-37-19.1c-13.3-1.8-26.8-0.1-40.1-1
			c-13.3-0.9-25-4.6-35.9-12.5c-13.2-9.6-24.9-21.7-35.8-33.7c-10.7-11.8-19.7-26-32.7-35.4c-13.3-9.6-29.8-9.9-45.5-11.2
			c-17.7-1.5-34.1-6.5-49.8-14.7c-15.5-8.1-31.3-18.4-44.5-30c-2.6-2.3,0.5-7.1,3.6-5.2c14.3,8.8,27.1,19.6,41.9,27.7
			c14.3,7.8,29.4,13.1,45.5,14.8c14.9,1.6,30.4,1.3,44.3,7.7c13.1,6.1,22,17.7,31,28.6c10.7,13.1,22.3,25.4,34.9,36.8
			c12.3,11.2,24.7,18.9,41.5,20.5c13.2,1.2,26.6,0,39.8,1.6c12.3,1.5,23.5,6,33.2,13.6c23.8,18.8,35.5,48.9,60.4,66.6
			C979.6,514.7,978.4,516.4,977.4,515.8z"/>
		<path class="st11" d="M837.1,536.2c-13.3-1.8-26.8-0.1-40.1-1c-13.3-0.9-25-4.6-35.9-12.5c-13.2-9.6-24.9-21.7-35.8-33.7
			c-10.7-11.8-19.7-26-32.7-35.4c-13.3-9.6-29.8-9.9-45.5-11.2c-17.7-1.5-34.1-6.5-49.8-14.7c-15.5-8.1-31.3-18.4-44.5-30
			c-2.6-2.3,0.5-7.1,3.6-5.2c14.3,8.8,27.1,19.6,41.9,27.7c14.3,7.8,29.4,13.1,45.5,14.8c14.9,1.6,30.4,1.3,44.3,7.7
			c13.1,6.1,22,17.7,31,28.6c10.7,13.1,22.3,25.4,34.9,36.8c12.3,11.2,24.7,18.9,41.5,20.5c13.2,1.2,26.6,0,39.8,1.6
			c12.3,1.5,23.5,6,33.2,13.6c23.8,18.8,35.5,48.9,60.4,66.6c1,0.7-0.2,2.4-1.2,1.8c-22.4-14.5-34.8-38.6-53.5-56.9
			C863.7,545.1,851.6,538.1,837.1,536.2z"/>
		<path class="st11" d="M944.2,580c-22.4-14.5-34.8-38.6-53.5-56.9c-10.4-10.1-22.5-17.1-37-19.1c-13.3-1.8-26.8-0.1-40.1-1
			c-13.3-0.9-25-4.6-35.9-12.5c-13.2-9.6-24.9-21.7-35.8-33.7c-10.7-11.8-19.7-26-32.7-35.4c-13.3-9.6-29.8-9.9-45.5-11.2
			c-17.7-1.5-34.1-6.5-49.8-14.7c-15.5-8.1-31.3-18.4-44.5-30c-2.6-2.3,0.5-7.1,3.6-5.2c14.3,8.8,27.1,19.6,41.9,27.7
			c14.3,7.8,29.4,13.1,45.5,14.8c14.9,1.6,30.4,1.3,44.3,7.7c13.1,6.1,22,17.7,31,28.6c10.7,13.1,22.3,25.4,34.9,36.8
			c12.3,11.2,24.7,18.9,41.5,20.5c13.2,1.2,26.6,0,39.8,1.6c12.3,1.5,23.5,6,33.2,13.6c23.8,18.8,35.5,48.9,60.4,66.6
			C946.4,579,945.2,580.7,944.2,580z"/>
		<path class="st11" d="M796.3,596.6c-13.3-1.8-26.8-0.1-40.1-1c-13.3-0.9-25-4.6-35.9-12.5c-13.2-9.6-24.9-21.7-35.8-33.7
			c-10.7-11.8-19.7-26-32.7-35.4c-13.3-9.6-29.8-9.9-45.5-11.2c-17.7-1.5-34.1-6.5-49.8-14.7c-15.5-8.1-31.3-18.4-44.5-30
			c-2.6-2.3,0.5-7.1,3.6-5.2c14.3,8.8,27.1,19.6,41.9,27.7c14.3,7.8,29.4,13.1,45.5,14.8c14.9,1.6,30.4,1.3,44.3,7.7
			c13.1,6.1,22,17.7,31,28.6c10.7,13.1,22.3,25.4,34.9,36.8c12.3,11.2,24.7,18.9,41.5,20.5c13.2,1.2,26.6,0,39.8,1.6
			c12.3,1.5,23.5,6,33.2,13.6c23.8,18.8,35.5,48.9,60.4,66.6c1,0.7-0.2,2.4-1.2,1.8c-22.4-14.5-34.8-38.6-53.5-56.9
			C822.9,605.5,810.8,598.5,796.3,596.6z"/>
		<path class="st11" d="M619.7,463.3c14.9,1.6,30.4,1.3,44.3,7.7c13.1,6.1,22,17.7,31,28.6c10.7,13.1,22.3,25.4,34.9,36.8
			c12.3,11.2,24.7,18.9,41.5,20.5c13.2,1.2,26.6,0,39.8,1.6c12.3,1.5,23.5,6,33.2,13.6c23.8,18.8,35.5,48.9,60.4,66.6
			c1,0.7-0.2,2.4-1.2,1.8c-22.4-14.5-34.8-38.6-53.5-56.9c-10.4-10.1-22.5-17.1-37-19.1c-13.3-1.8-26.8-0.1-40.1-1
			c-13.3-0.9-25-4.6-35.9-12.5c-13.2-9.6-24.9-21.7-35.8-33.7c-10.7-11.8-19.7-26-32.7-35.4c-13.3-9.6-29.8-9.9-45.5-11.2
			c-17.7-1.5-34.1-6.5-49.8-14.7c-15.5-8.1-31.3-18.4-44.5-30c-2.6-2.3,0.5-7.1,3.6-5.2c14.3,8.8,27.1,19.6,41.9,27.7
			C588.4,456.2,603.5,461.5,619.7,463.3z"/>
		<path class="st11" d="M789.8,674.2c-10.4-10.1-22.5-17.1-37-19.1c-13.3-1.8-26.8-0.1-40.1-1c-13.3-0.9-25-4.6-35.9-12.5
			c-13.2-9.6-24.9-21.7-35.8-33.7c-10.7-11.8-19.7-26-32.7-35.4c-13.3-9.6-29.8-9.9-45.5-11.2c-17.7-1.5-34.1-6.5-49.8-14.7
			c-15.5-8.1-31.3-18.4-44.5-30c-2.6-2.3,0.5-7.1,3.6-5.2c14.3,8.8,27.1,19.6,41.9,27.7c14.3,7.8,29.4,13.1,45.5,14.8
			c14.9,1.6,30.4,1.3,44.3,7.7c13.1,6.1,22,17.7,31,28.6c10.7,13.1,22.3,25.4,34.9,36.8c12.3,11.2,24.7,18.9,41.5,20.5
			c13.2,1.2,26.6,0,39.8,1.6c12.3,1.5,23.5,6,33.2,13.6c23.8,18.8,35.5,48.9,60.4,66.6c1,0.7-0.2,2.4-1.2,1.8
			C820.9,716.6,808.5,692.5,789.8,674.2z"/>
		<path class="st11" d="M576.1,521.8c14.9,1.6,30.4,1.3,44.3,7.7c13.1,6.1,22,17.7,31,28.6c10.7,13.1,22.3,25.4,34.9,36.8
			c12.3,11.2,24.7,18.9,41.5,20.5c13.2,1.2,26.6,0,39.8,1.6c12.3,1.5,23.5,6,33.2,13.6c23.8,18.8,35.5,48.9,60.4,66.6
			c1,0.7-0.2,2.4-1.2,1.8c-22.4-14.5-34.8-38.6-53.5-56.9c-10.4-10.1-22.5-17.1-37-19.1c-13.3-1.8-26.8-0.1-40.1-1
			c-13.3-0.9-25-4.6-35.9-12.5c-13.2-9.6-24.9-21.7-35.8-33.7c-10.7-11.8-19.7-26-32.7-35.4c-13.3-9.6-29.8-9.9-45.5-11.2
			c-17.7-1.5-34.1-6.5-49.8-14.7c-15.5-8.1-31.3-18.4-44.5-30c-2.6-2.3,0.5-7.1,3.6-5.2c14.3,8.8,27.1,19.6,41.9,27.7
			C544.9,514.7,560,520.1,576.1,521.8z"/>
		<path class="st11" d="M810.1,795.4c-22.4-14.5-34.8-38.6-53.5-56.9c-10.4-10.1-22.5-17.1-37-19.1c-13.3-1.8-26.8-0.1-40.1-1
			c-13.3-0.9-25-4.6-35.9-12.5c-13.2-9.6-24.9-21.7-35.8-33.7c-10.7-11.8-19.7-26-32.7-35.4c-13.3-9.6-29.8-9.9-45.5-11.2
			c-17.7-1.5-34.1-6.5-49.8-14.7c-15.5-8.1-31.3-18.4-44.5-30c-2.6-2.3,0.5-7.1,3.6-5.2c14.3,8.8,27.1,19.6,41.9,27.7
			c14.3,7.8,29.4,13.1,45.5,14.8c14.9,1.6,30.4,1.3,44.3,7.7c13.1,6.1,22,17.7,31,28.6c10.7,13.1,22.3,25.4,34.9,36.8
			c12.3,11.2,24.7,18.9,41.5,20.5c13.2,1.2,26.6,0,39.8,1.6c12.3,1.5,23.5,6,33.2,13.6c23.8,18.8,35.5,48.9,60.4,66.6
			C812.3,794.3,811.1,796.1,810.1,795.4z"/>
		<path class="st11" d="M826.7,763.2c-22.4-14.5-34.8-38.6-53.5-56.9c-10.4-10.1-22.5-17.1-37-19.1c-13.3-1.8-26.8-0.1-40.1-1
			c-13.3-0.9-25-4.6-35.9-12.5c-13.2-9.6-24.9-21.7-35.8-33.7c-10.7-11.8-19.7-26-32.7-35.4c-13.3-9.6-29.8-9.9-45.5-11.2
			c-17.7-1.5-34.1-6.5-49.8-14.7c-15.5-8.1-31.3-18.4-44.5-30c-2.6-2.3,0.5-7.1,3.6-5.2c14.3,8.8,27.1,19.6,41.9,27.7
			c14.3,7.8,29.4,13.1,45.5,14.8c14.9,1.6,30.4,1.3,44.3,7.7c13.1,6.1,22,17.7,31,28.6c10.7,13.1,22.3,25.4,34.9,36.8
			c12.3,11.2,24.7,18.9,41.5,20.5c13.2,1.2,26.6,0,39.8,1.6c12.3,1.5,23.5,6,33.2,13.6c23.8,18.8,35.5,48.9,60.4,66.6
			C828.9,762.2,827.7,763.9,826.7,763.2z"/>
		<path class="st11" d="M686.4,783.7c-13.3-1.8-26.8-0.1-40.1-1c-13.3-0.9-25-4.6-35.9-12.5c-13.2-9.6-24.9-21.7-35.8-33.7
			c-10.7-11.8-19.7-26-32.7-35.4c-13.3-9.6-29.8-9.9-45.5-11.2c-17.7-1.5-34.1-6.5-49.8-14.7c-15.5-8.1-31.3-18.4-44.5-30
			c-2.6-2.3,0.5-7.1,3.6-5.2c14.3,8.8,27.1,19.6,41.9,27.7c14.3,7.8,29.4,13.1,45.5,14.8c14.9,1.6,30.4,1.3,44.3,7.7
			c13.1,6.1,22,17.7,31,28.6c10.7,13.1,22.3,25.4,34.9,36.8c12.3,11.2,24.7,18.9,41.5,20.5c13.2,1.2,26.6,0,39.8,1.6
			c12.3,1.5,23.5,6,33.2,13.6c23.8,18.8,35.5,48.9,60.4,66.6c1,0.7-0.2,2.4-1.2,1.8c-22.4-14.5-34.8-38.6-53.5-56.9
			C713,792.6,700.9,785.6,686.4,783.7z"/>
		<path class="st11" d="M793.5,827.5c-22.4-14.5-34.8-38.6-53.5-56.9c-10.4-10.1-22.5-17.1-37-19.1c-13.3-1.8-26.8-0.1-40.1-1
			c-13.3-0.9-25-4.6-35.9-12.5c-13.2-9.6-24.9-21.7-35.8-33.7c-10.7-11.8-19.7-26-32.7-35.4c-13.3-9.6-29.8-9.9-45.5-11.2
			c-17.7-1.5-34.1-6.5-49.8-14.7c-15.5-8.1-31.3-18.4-44.5-30c-2.6-2.3,0.5-7.1,3.6-5.2c14.3,8.8,27.1,19.6,41.9,27.7
			c14.3,7.8,29.4,13.1,45.5,14.8c14.9,1.6,30.4,1.3,44.3,7.7c13.1,6.1,22,17.7,31,28.6c10.7,13.1,22.3,25.4,34.9,36.8
			c12.3,11.2,24.7,18.9,41.5,20.5c13.2,1.2,26.6,0,39.8,1.6c12.3,1.5,23.5,6,33.2,13.6c23.8,18.8,35.5,48.9,60.4,66.6
			C795.8,826.5,794.6,828.2,793.5,827.5z"/>
		<path class="st11" d="M645.6,844c-13.3-1.8-26.8-0.1-40.1-1c-13.3-0.9-25-4.6-35.9-12.5c-13.2-9.6-24.9-21.7-35.8-33.7
			c-10.7-11.8-19.7-26-32.7-35.4c-13.3-9.6-29.8-9.9-45.5-11.2c-17.7-1.5-34.1-6.5-49.8-14.7c-15.5-8.1-31.3-18.4-44.5-30
			c-2.6-2.3,0.5-7.1,3.6-5.2c14.3,8.8,27.1,19.6,41.9,27.7c14.3,7.8,29.4,13.1,45.5,14.8c14.9,1.6,30.4,1.3,44.3,7.7
			c13.1,6.1,22,17.7,31,28.6c10.7,13.1,22.3,25.4,34.9,36.8c12.3,11.2,24.7,18.9,41.5,20.5c13.2,1.2,26.6,0,39.8,1.6
			c12.3,1.5,23.5,6,33.2,13.6c23.8,18.8,35.5,48.9,60.4,66.6c1,0.7-0.2,2.4-1.2,1.8c-22.4-14.5-34.8-38.6-53.5-56.9
			C672.3,853,660.1,846,645.6,844z"/>
		<path class="st11" d="M469,710.8c14.9,1.6,30.4,1.3,44.3,7.7c13.1,6.1,22,17.7,31,28.6c10.7,13.1,22.3,25.4,34.9,36.8
			c12.3,11.2,24.7,18.9,41.5,20.5c13.2,1.2,26.6,0,39.8,1.6c12.3,1.5,23.5,6,33.2,13.6c23.8,18.8,35.5,48.9,60.4,66.6
			c1,0.7-0.2,2.4-1.2,1.8c-22.4-14.5-34.8-38.6-53.5-56.9c-10.4-10.1-22.5-17.1-37-19.1c-13.3-1.8-26.8-0.1-40.1-1
			c-13.3-0.9-25-4.6-35.9-12.5c-13.2-9.6-24.9-21.7-35.8-33.7c-10.7-11.8-19.7-26-32.7-35.4c-13.3-9.6-29.8-9.9-45.5-11.2
			c-17.7-1.5-34.1-6.5-49.8-14.7c-15.5-8.1-31.3-18.4-44.5-30c-2.6-2.3,0.5-7.1,3.6-5.2c14.3,8.8,27.1,19.6,41.9,27.7
			C437.7,703.7,452.8,709,469,710.8z"/>
		<path class="st11" d="M645.2,925.2c-10.4-10.1-22.5-17.1-37-19.1c-13.3-1.8-26.8-0.1-40.1-1c-13.3-0.9-25-4.6-35.9-12.5
			c-13.2-9.6-24.9-21.7-35.8-33.7c-10.7-11.8-19.7-26-32.7-35.4c-13.3-9.6-29.8-9.9-45.5-11.2c-17.7-1.5-34.1-6.5-49.8-14.7
			c-15.5-8.1-31.3-18.4-44.5-30c-2.6-2.3,0.5-7.1,3.6-5.2c14.3,8.8,27.1,19.6,41.9,27.7c14.3,7.8,29.4,13.1,45.5,14.8
			c14.9,1.6,30.4,1.3,44.3,7.7c13.1,6.1,22,17.7,31,28.6c10.7,13.1,22.3,25.4,34.9,36.8c12.3,11.2,24.7,18.9,41.5,20.5
			c13.2,1.2,26.6,0,39.8,1.6c12.3,1.5,23.5,6,33.2,13.6c23.8,18.8,35.5,48.9,60.4,66.6c1,0.7-0.2,2.4-1.2,1.8
			C676.3,967.6,663.9,943.5,645.2,925.2z"/>
		<path class="st11" d="M431.6,772.9c14.9,1.6,30.4,1.3,44.3,7.7c13.1,6.1,22,17.7,31,28.6c10.7,13.1,22.3,25.4,34.9,36.8
			c12.3,11.2,24.7,18.9,41.5,20.5c13.2,1.2,26.6,0,39.8,1.6c12.3,1.5,23.5,6,33.2,13.6c23.8,18.8,35.5,48.9,60.4,66.6
			c1,0.7-0.2,2.4-1.2,1.8c-22.4-14.5-34.8-38.6-53.5-56.9c-10.4-10.1-22.5-17.1-37-19.1c-13.3-1.8-26.8-0.1-40.1-1
			c-13.3-0.9-25-4.6-35.9-12.5c-13.2-9.6-24.9-21.7-35.8-33.7c-10.7-11.8-19.7-26-32.7-35.4c-13.3-9.6-29.8-9.9-45.5-11.2
			c-17.7-1.5-34.1-6.5-49.8-14.7c-15.5-8.1-31.3-18.4-44.5-30c-2.6-2.3,0.5-7.1,3.6-5.2c14.3,8.8,27.1,19.6,41.9,27.7
			C400.3,765.8,415.4,771.1,431.6,772.9z"/>
		<path class="st11" d="M665.5,1046.4c-22.4-14.5-34.8-38.6-53.5-56.9c-10.4-10.1-22.5-17.1-37-19.1c-13.3-1.8-26.8-0.1-40.1-1
			c-13.3-0.9-25-4.6-35.9-12.5c-13.2-9.6-24.9-21.7-35.8-33.7c-10.7-11.8-19.7-26-32.7-35.4c-13.3-9.6-29.8-9.9-45.5-11.2
			c-17.7-1.5-34.1-6.5-49.8-14.7c-15.5-8.1-31.3-18.4-44.5-30c-2.6-2.3,0.5-7.1,3.6-5.2c14.3,8.8,27.1,19.6,41.9,27.7
			c14.3,7.8,29.4,13.1,45.5,14.8c14.9,1.6,30.4,1.3,44.3,7.7c13.1,6.1,22,17.7,31,28.6c10.7,13.1,22.3,25.4,34.9,36.8
			c12.3,11.2,24.7,18.9,41.5,20.5c13.2,1.2,26.6,0,39.8,1.6c12.3,1.5,23.5,6,33.2,13.6c23.8,18.8,35.5,48.9,60.4,66.6
			C667.8,1045.4,666.6,1047.1,665.5,1046.4z"/>
		<path class="st11" d="M682.1,1014.3c-22.4-14.5-34.8-38.6-53.5-56.9c-10.4-10.1-22.5-17.1-37-19.1c-13.3-1.8-26.8-0.1-40.1-1
			c-13.3-0.9-25-4.6-35.9-12.5c-13.2-9.6-24.9-21.7-35.8-33.7c-10.7-11.8-19.7-26-32.7-35.4c-13.3-9.6-29.8-9.9-45.5-11.2
			c-17.7-1.5-34.1-6.5-49.8-14.7c-15.5-8.1-31.3-18.4-44.5-30c-2.6-2.3,0.5-7.1,3.6-5.2c14.3,8.8,27.1,19.6,41.9,27.7
			c14.3,7.8,29.4,13.1,45.5,14.8c14.9,1.6,30.4,1.3,44.3,7.7c13.1,6.1,22,17.7,31,28.6c10.7,13.1,22.3,25.4,34.9,36.8
			c12.3,11.2,24.7,18.9,41.5,20.5c13.2,1.2,26.6,0,39.8,1.6c12.3,1.5,23.5,6,33.2,13.6c23.8,18.8,35.5,48.9,60.4,66.6
			C684.4,1013.2,683.2,1015,682.1,1014.3z"/>
		<path class="st11" d="M541.9,1034.7c-13.3-1.8-26.8-0.1-40.1-1c-13.3-0.9-25-4.6-35.9-12.5c-13.2-9.6-24.9-21.7-35.8-33.7
			c-10.7-11.8-19.7-26-32.7-35.4c-13.3-9.6-29.8-9.9-45.5-11.2c-17.7-1.5-34.1-6.5-49.8-14.7c-15.5-8.1-31.3-18.4-44.5-30
			c-2.6-2.3,0.5-7.1,3.6-5.2c14.3,8.8,27.1,19.6,41.9,27.7c14.3,7.8,29.4,13.1,45.5,14.8c14.9,1.6,30.4,1.3,44.3,7.7
			c13.1,6.1,22,17.7,31,28.6c10.7,13.1,22.3,25.4,34.9,36.8c12.3,11.2,24.7,18.9,41.5,20.5c13.2,1.2,26.6,0,39.8,1.6
			c12.3,1.5,23.5,6,33.2,13.6c23.8,18.8,35.5,48.9,60.4,66.6c1,0.7-0.2,2.4-1.2,1.8c-22.4-14.5-34.8-38.6-53.5-56.9
			C568.5,1043.7,556.4,1036.7,541.9,1034.7z"/>
		<path class="st11" d="M648.9,1078.6c-22.4-14.5-34.8-38.6-53.5-56.9c-10.4-10.1-22.5-17.1-37-19.1c-13.3-1.8-26.8-0.1-40.1-1
			c-13.3-0.9-25-4.6-35.9-12.5c-13.2-9.6-24.9-21.7-35.8-33.7C436,943.7,427,929.4,414,920c-13.3-9.6-29.8-9.9-45.5-11.2
			c-17.7-1.5-34.1-6.5-49.8-14.7c-15.5-8.1-31.3-18.4-44.5-30c-2.6-2.3,0.5-7.1,3.6-5.2c14.3,8.8,27.1,19.6,41.9,27.7
			c14.3,7.8,29.4,13.1,45.5,14.8c14.9,1.6,30.4,1.3,44.3,7.7c13.1,6.1,22,17.7,31,28.6c10.7,13.1,22.3,25.4,34.9,36.8
			c12.3,11.2,24.7,18.9,41.5,20.5c13.2,1.2,26.6,0,39.8,1.6c12.3,1.5,23.5,6,33.2,13.6c23.8,18.8,35.5,48.9,60.4,66.6
			C651.2,1077.5,650,1079.2,648.9,1078.6z"/>
		<path class="st11" d="M220.3,951.5c14.3,8.8,27.1,19.6,41.9,27.7c14.3,7.8,29.4,13.1,45.5,14.8c14.9,1.6,30.4,1.3,44.3,7.7
			c13.1,6.1,22,17.7,31,28.6c10.7,13.1,22.3,25.4,34.9,36.8c12.3,11.2,24.7,18.9,41.5,20.5c13.2,1.2,26.6,0,39.8,1.6
			c12.3,1.5,23.5,6,33.2,13.6c23.8,18.8,35.5,48.9,60.4,66.6c1,0.7-0.2,2.4-1.2,1.8c-22.4-14.5-34.8-38.6-53.5-56.9
			c-10.4-10.1-22.5-17.1-37-19.1c-13.3-1.8-26.8-0.1-40.1-1c-13.3-0.9-25-4.6-35.9-12.5c-13.2-9.6-24.9-21.7-35.8-33.7
			c-10.7-11.8-19.7-26-32.7-35.4c-13.3-9.6-29.8-9.9-45.5-11.2c-17.7-1.5-34.1-6.5-49.8-14.7c-15.5-8.1-31.3-18.4-44.5-30
			C214.1,954.3,217.2,949.5,220.3,951.5z"/>
		<path class="st11" d="M324.4,961.8c14.9,1.6,30.4,1.3,44.3,7.7c13.1,6.1,22,17.7,31,28.6c10.7,13.1,22.3,25.4,34.9,36.8
			c12.3,11.2,24.7,18.9,41.5,20.5c13.2,1.2,26.6,0,39.8,1.6c12.3,1.5,23.5,6,33.2,13.6c23.8,18.8,35.5,48.9,60.4,66.6
			c1,0.7-0.2,2.4-1.2,1.8c-22.4-14.5-34.8-38.6-53.5-56.9c-10.4-10.1-22.5-17.1-37-19.1c-13.3-1.8-26.8-0.1-40.1-1
			c-13.3-0.9-25-4.6-35.9-12.5c-13.2-9.6-24.9-21.7-35.8-33.7c-10.7-11.8-19.7-26-32.7-35.4c-13.3-9.6-29.8-9.9-45.5-11.2
			c-17.7-1.5-34.1-6.5-49.8-14.7c-15.5-8.1-31.3-18.4-44.5-30c-2.6-2.3,0.5-7.1,3.6-5.2c14.3,8.8,27.1,19.6,41.9,27.7
			C293.1,954.7,308.2,960.1,324.4,961.8z"/>
	</g>
</g>
<g>
	<defs>
		<path id="SVGID_19_" d="M671.6,891.4c19.5-40.6,18.1-50.8,19.9-94.6c0.2-5.2-1.9-7.2-6.7-8.3c-41.4-9.7-82.8-19.5-124.1-29.4
			c-4.4-1.1-7.4-0.5-9.3,3.9C532.6,804.7,524,814.4,525,861c0.5,23.9,7.5,45.4,26.9,61.3c36.4,29.9,90.4,20.1,113.7-20.7
			C667.7,898.1,669.8,894.6,671.6,891.4z"/>
	</defs>
	<clipPath id="SVGID_4_">
		<use xlink:href="#SVGID_19_"  style="overflow:visible;"/>
	</clipPath>
	<g class="st2">
		<path class="st11" d="M1075.5,256.5c-22.4-14.5-34.8-38.6-53.5-56.9c-10.4-10.1-22.5-17.1-37-19.1c-13.3-1.8-26.8-0.1-40.1-1
			c-13.3-0.9-25-4.6-35.9-12.5c-13.2-9.6-24.9-21.7-35.8-33.7c-10.7-11.8-19.7-26-32.7-35.4c-13.3-9.6-29.8-9.9-45.5-11.2
			c-17.7-1.5-34.1-6.5-49.8-14.7c-15.5-8.1-31.3-18.4-44.5-30c-2.6-2.3,0.5-7.1,3.6-5.2c14.3,8.8,27.1,19.6,41.9,27.7
			c14.3,7.8,29.4,13.1,45.5,14.8c14.9,1.6,30.4,1.3,44.3,7.7c13.1,6.1,22,17.7,31,28.6c10.7,13.1,22.3,25.4,34.9,36.8
			c12.3,11.2,24.7,18.9,41.5,20.5c13.2,1.2,26.6,0,39.8,1.6c12.3,1.5,23.5,6,33.2,13.6c23.8,18.8,35.5,48.9,60.4,66.6
			C1077.8,255.4,1076.6,257.1,1075.5,256.5z"/>
		<path class="st11" d="M1092.1,224.3c-22.4-14.5-34.8-38.6-53.5-56.9c-10.4-10.1-22.5-17.1-37-19.1c-13.3-1.8-26.8-0.1-40.1-1
			c-13.3-0.9-25-4.6-35.9-12.5c-13.2-9.6-24.9-21.7-35.8-33.7c-10.7-11.8-19.7-26-32.7-35.4c-13.3-9.6-29.8-9.9-45.5-11.2
			c-17.7-1.5-34.1-6.5-49.8-14.7c-15.5-8.1-31.3-18.4-44.5-30c-2.6-2.3,0.5-7.1,3.6-5.2c14.3,8.8,27.1,19.6,41.9,27.7
			c14.3,7.8,29.4,13.1,45.5,14.8c14.9,1.6,30.4,1.3,44.3,7.7c13.1,6.1,22,17.7,31,28.6c10.7,13.1,22.3,25.4,34.9,36.8
			c12.3,11.2,24.7,18.9,41.5,20.5c13.2,1.2,26.6,0,39.8,1.6c12.3,1.5,23.5,6,33.2,13.6c23.8,18.8,35.5,48.9,60.4,66.6
			C1094.3,223.3,1093.1,225,1092.1,224.3z"/>
		<path class="st11" d="M1042.3,320.8c-22.4-14.5-34.8-38.6-53.5-56.9c-10.4-10.1-22.5-17.1-37-19.1c-13.3-1.8-26.8-0.1-40.1-1
			c-13.3-0.9-25-4.6-35.9-12.5c-13.2-9.6-24.9-21.7-35.8-33.7c-10.7-11.8-19.7-26-32.7-35.4c-13.3-9.6-29.8-9.9-45.5-11.2
			c-17.7-1.5-34.1-6.5-49.8-14.7c-15.5-8.1-31.3-18.4-44.5-30c-2.6-2.3,0.5-7.1,3.6-5.2c14.3,8.8,27.1,19.6,41.9,27.7
			c14.3,7.8,29.4,13.1,45.5,14.8c14.9,1.6,30.4,1.3,44.3,7.7c13.1,6.1,22,17.7,31,28.6c10.7,13.1,22.3,25.4,34.9,36.8
			c12.3,11.2,24.7,18.9,41.5,20.5c13.2,1.2,26.6,0,39.8,1.6c12.3,1.5,23.5,6,33.2,13.6c23.8,18.8,35.5,48.9,60.4,66.6
			C1044.6,319.7,1043.4,321.4,1042.3,320.8z"/>
		<path class="st11" d="M1058.9,288.6c-22.4-14.5-34.8-38.6-53.5-56.9c-10.4-10.1-22.5-17.1-37-19.1c-13.3-1.8-26.8-0.1-40.1-1
			c-13.3-0.9-25-4.6-35.9-12.5c-13.2-9.6-24.9-21.7-35.8-33.7c-10.7-11.8-19.7-26-32.7-35.4c-13.3-9.6-29.8-9.9-45.5-11.2
			c-17.7-1.5-34.1-6.5-49.8-14.7c-15.5-8.1-31.3-18.4-44.5-30c-2.6-2.3,0.5-7.1,3.6-5.2c14.3,8.8,27.1,19.6,41.9,27.7
			c14.3,7.8,29.4,13.1,45.5,14.8c14.9,1.6,30.4,1.3,44.3,7.7c13.1,6.1,22,17.7,31,28.6c10.7,13.1,22.3,25.4,34.9,36.8
			c12.3,11.2,24.7,18.9,41.5,20.5c13.2,1.2,26.6,0,39.8,1.6c12.3,1.5,23.5,6,33.2,13.6c23.8,18.8,35.5,48.9,60.4,66.6
			C1061.2,287.5,1060,289.3,1058.9,288.6z"/>
		<path class="st11" d="M918.7,309c-13.3-1.8-26.8-0.1-40.1-1c-13.3-0.9-25-4.6-35.9-12.5c-13.2-9.6-24.9-21.7-35.8-33.7
			c-10.7-11.8-19.7-26-32.7-35.4c-13.3-9.6-29.8-9.9-45.5-11.2c-17.7-1.5-34.1-6.5-49.8-14.7c-15.5-8.1-31.3-18.4-44.5-30
			c-2.6-2.3,0.5-7.1,3.6-5.2c14.3,8.8,27.1,19.6,41.9,27.7c14.3,7.8,29.4,13.1,45.5,14.8c14.9,1.6,30.4,1.3,44.3,7.7
			c13.1,6.1,22,17.7,31,28.6c10.7,13.1,22.3,25.4,34.9,36.8c12.3,11.2,24.7,18.9,41.5,20.5c13.2,1.2,26.6,0,39.8,1.6
			c12.3,1.5,23.5,6,33.2,13.6c23.8,18.8,35.5,48.9,60.4,66.6c1,0.7-0.2,2.4-1.2,1.8c-22.4-14.5-34.8-38.6-53.5-56.9
			C945.3,318,933.2,311,918.7,309z"/>
		<path class="st11" d="M1025.7,352.9c-22.4-14.5-34.8-38.6-53.5-56.9c-10.4-10.1-22.5-17.1-37-19.1c-13.3-1.8-26.8-0.1-40.1-1
			c-13.3-0.9-25-4.6-35.9-12.5c-13.2-9.6-24.9-21.7-35.8-33.7c-10.7-11.8-19.7-26-32.7-35.4c-13.3-9.6-29.8-9.9-45.5-11.2
			c-17.7-1.5-34.1-6.5-49.8-14.7c-15.5-8.1-31.3-18.4-44.5-30c-2.6-2.3,0.5-7.1,3.6-5.2c14.3,8.8,27.1,19.6,41.9,27.7
			c14.3,7.8,29.4,13.1,45.5,14.8c14.9,1.6,30.4,1.3,44.3,7.7c13.1,6.1,22,17.7,31,28.6c10.7,13.1,22.3,25.4,34.9,36.8
			c12.3,11.2,24.7,18.9,41.5,20.5c13.2,1.2,26.6,0,39.8,1.6c12.3,1.5,23.5,6,33.2,13.6c23.8,18.8,35.5,48.9,60.4,66.6
			C1028,351.8,1026.8,353.6,1025.7,352.9z"/>
		<path class="st11" d="M877.9,369.4c-13.3-1.8-26.8-0.1-40.1-1c-13.3-0.9-25-4.6-35.9-12.5c-13.2-9.6-24.9-21.7-35.8-33.7
			c-10.7-11.8-19.7-26-32.7-35.4c-13.3-9.6-29.8-9.9-45.5-11.2c-17.7-1.5-34.1-6.5-49.8-14.7c-15.5-8.1-31.3-18.4-44.5-30
			c-2.6-2.3,0.5-7.1,3.6-5.2c14.3,8.8,27.1,19.6,41.9,27.7c14.3,7.8,29.4,13.1,45.5,14.8c14.9,1.6,30.4,1.3,44.3,7.7
			c13.1,6.1,22,17.7,31,28.6c10.7,13.1,22.3,25.4,34.9,36.8c12.3,11.2,24.7,18.9,41.5,20.5c13.2,1.2,26.6,0,39.8,1.6
			c12.3,1.5,23.5,6,33.2,13.6c23.8,18.8,35.5,48.9,60.4,66.6c1,0.7-0.2,2.4-1.2,1.8c-22.4-14.5-34.8-38.6-53.5-56.9
			C904.5,378.4,892.4,371.4,877.9,369.4z"/>
		<path class="st11" d="M701.2,236.1c14.9,1.6,30.4,1.3,44.3,7.7c13.1,6.1,22,17.7,31,28.6c10.7,13.1,22.3,25.4,34.9,36.8
			c12.3,11.2,24.7,18.9,41.5,20.5c13.2,1.2,26.6,0,39.8,1.6c12.3,1.5,23.5,6,33.2,13.6c23.8,18.8,35.5,48.9,60.4,66.6
			c1,0.7-0.2,2.4-1.2,1.8c-22.4-14.5-34.8-38.6-53.5-56.9c-10.4-10.1-22.5-17.1-37-19.1c-13.3-1.8-26.8-0.1-40.1-1
			c-13.3-0.9-25-4.6-35.9-12.5c-13.2-9.6-24.9-21.7-35.8-33.7c-10.7-11.8-19.7-26-32.7-35.4c-13.3-9.6-29.8-9.9-45.5-11.2
			c-17.7-1.5-34.1-6.5-49.8-14.7c-15.5-8.1-31.3-18.4-44.5-30c-2.6-2.3,0.5-7.1,3.6-5.2c14.3,8.8,27.1,19.6,41.9,27.7
			C669.9,229.1,685,234.4,701.2,236.1z"/>
		<path class="st11" d="M877.4,450.6c-10.4-10.1-22.5-17.1-37-19.1c-13.3-1.8-26.8-0.1-40.1-1c-13.3-0.9-25-4.6-35.9-12.5
			c-13.2-9.6-24.9-21.7-35.8-33.7c-10.7-11.8-19.7-26-32.7-35.4c-13.3-9.6-29.8-9.9-45.5-11.2c-17.7-1.5-34.1-6.5-49.8-14.7
			c-15.5-8.1-31.3-18.4-44.5-30c-2.6-2.3,0.5-7.1,3.6-5.2c14.3,8.8,27.1,19.6,41.9,27.7c14.3,7.8,29.4,13.1,45.5,14.8
			c14.9,1.6,30.4,1.3,44.3,7.7c13.1,6.1,22,17.7,31,28.6c10.7,13.1,22.3,25.4,34.9,36.8c12.3,11.2,24.7,18.9,41.5,20.5
			c13.2,1.2,26.6,0,39.8,1.6c12.3,1.5,23.5,6,33.2,13.6c23.8,18.8,35.5,48.9,60.4,66.6c1,0.7-0.2,2.4-1.2,1.8
			C908.6,493,896.2,468.9,877.4,450.6z"/>
		<path class="st11" d="M663.8,298.3c14.9,1.6,30.4,1.3,44.3,7.7c13.1,6.1,22,17.7,31,28.6c10.7,13.1,22.3,25.4,34.9,36.8
			c12.3,11.2,24.7,18.9,41.5,20.5c13.2,1.2,26.6,0,39.8,1.6c12.3,1.5,23.5,6,33.2,13.6c23.8,18.8,35.5,48.9,60.4,66.6
			c1,0.7-0.2,2.4-1.2,1.8c-22.4-14.5-34.8-38.6-53.5-56.9c-10.4-10.1-22.5-17.1-37-19.1c-13.3-1.8-26.8-0.1-40.1-1
			c-13.3-0.9-25-4.6-35.9-12.5c-13.2-9.6-24.9-21.7-35.8-33.7c-10.7-11.8-19.7-26-32.7-35.4c-13.3-9.6-29.8-9.9-45.5-11.2
			c-17.7-1.5-34.1-6.5-49.8-14.7c-15.5-8.1-31.3-18.4-44.5-30c-2.6-2.3,0.5-7.1,3.6-5.2c14.3,8.8,27.1,19.6,41.9,27.7
			C632.5,291.2,647.6,296.5,663.8,298.3z"/>
		<path class="st11" d="M897.8,571.8c-22.4-14.5-34.8-38.6-53.5-56.9c-10.4-10.1-22.5-17.1-37-19.1c-13.3-1.8-26.8-0.1-40.1-1
			c-13.3-0.9-25-4.6-35.9-12.5c-13.2-9.6-24.9-21.7-35.8-33.7c-10.7-11.8-19.7-26-32.7-35.4c-13.3-9.6-29.8-9.9-45.5-11.2
			c-17.7-1.5-34.1-6.5-49.8-14.7c-15.5-8.1-31.3-18.4-44.5-30c-2.6-2.3,0.5-7.1,3.6-5.2c14.3,8.8,27.1,19.6,41.9,27.7
			c14.3,7.8,29.4,13.1,45.5,14.8c14.9,1.6,30.4,1.3,44.3,7.7c13.1,6.1,22,17.7,31,28.6c10.7,13.1,22.3,25.4,34.9,36.8
			c12.3,11.2,24.7,18.9,41.5,20.5c13.2,1.2,26.6,0,39.8,1.6c12.3,1.5,23.5,6,33.2,13.6c23.8,18.8,35.5,48.9,60.4,66.6
			C900,570.7,898.8,572.5,897.8,571.8z"/>
		<path class="st11" d="M914.4,539.7c-22.4-14.5-34.8-38.6-53.5-56.9c-10.4-10.1-22.5-17.1-37-19.1c-13.3-1.8-26.8-0.1-40.1-1
			c-13.3-0.9-25-4.6-35.9-12.5c-13.2-9.6-24.9-21.7-35.8-33.7c-10.7-11.8-19.7-26-32.7-35.4c-13.3-9.6-29.8-9.9-45.5-11.2
			c-17.7-1.5-34.1-6.5-49.8-14.7c-15.5-8.1-31.3-18.4-44.5-30c-2.6-2.3,0.5-7.1,3.6-5.2c14.3,8.8,27.1,19.6,41.9,27.7
			c14.3,7.8,29.4,13.1,45.5,14.8c14.9,1.6,30.4,1.3,44.3,7.7c13.1,6.1,22,17.7,31,28.6c10.7,13.1,22.3,25.4,34.9,36.8
			c12.3,11.2,24.7,18.9,41.5,20.5c13.2,1.2,26.6,0,39.8,1.6c12.3,1.5,23.5,6,33.2,13.6c23.8,18.8,35.5,48.9,60.4,66.6
			C916.6,538.6,915.4,540.3,914.4,539.7z"/>
		<path class="st11" d="M774.1,560.1c-13.3-1.8-26.8-0.1-40.1-1c-13.3-0.9-25-4.6-35.9-12.5c-13.2-9.6-24.9-21.7-35.8-33.7
			c-10.7-11.8-19.7-26-32.7-35.4c-13.3-9.6-29.8-9.9-45.5-11.2c-17.7-1.5-34.1-6.5-49.8-14.7c-15.5-8.1-31.3-18.4-44.5-30
			c-2.6-2.3,0.5-7.1,3.6-5.2c14.3,8.8,27.1,19.6,41.9,27.7c14.3,7.8,29.4,13.1,45.5,14.8c14.9,1.6,30.4,1.3,44.3,7.7
			c13.1,6.1,22,17.7,31,28.6c10.7,13.1,22.3,25.4,34.9,36.8c12.3,11.2,24.7,18.9,41.5,20.5c13.2,1.2,26.6,0,39.8,1.6
			c12.3,1.5,23.5,6,33.2,13.6c23.8,18.8,35.5,48.9,60.4,66.6c1,0.7-0.2,2.4-1.2,1.8c-22.4-14.5-34.8-38.6-53.5-56.9
			C800.7,569,788.6,562,774.1,560.1z"/>
		<path class="st11" d="M881.2,604c-22.4-14.5-34.8-38.6-53.5-56.9c-10.4-10.1-22.5-17.1-37-19.1c-13.3-1.8-26.8-0.1-40.1-1
			c-13.3-0.9-25-4.6-35.9-12.5c-13.2-9.6-24.9-21.7-35.8-33.7c-10.7-11.8-19.7-26-32.7-35.4c-13.3-9.6-29.8-9.9-45.5-11.2
			c-17.7-1.5-34.1-6.5-49.8-14.7c-15.5-8.1-31.3-18.4-44.5-30c-2.6-2.3,0.5-7.1,3.6-5.2c14.3,8.8,27.1,19.6,41.9,27.7
			c14.3,7.8,29.4,13.1,45.5,14.8c14.9,1.6,30.4,1.3,44.3,7.7c13.1,6.1,22,17.7,31,28.6c10.7,13.1,22.3,25.4,34.9,36.8
			c12.3,11.2,24.7,18.9,41.5,20.5c13.2,1.2,26.6,0,39.8,1.6c12.3,1.5,23.5,6,33.2,13.6c23.8,18.8,35.5,48.9,60.4,66.6
			C883.4,602.9,882.2,604.6,881.2,604z"/>
		<path class="st11" d="M733.3,620.5c-13.3-1.8-26.8-0.1-40.1-1c-13.3-0.9-25-4.6-35.9-12.5c-13.2-9.6-24.9-21.7-35.8-33.7
			c-10.7-11.8-19.7-26-32.7-35.4c-13.3-9.6-29.8-9.9-45.5-11.2c-17.7-1.5-34.1-6.5-49.8-14.7c-15.5-8.1-31.3-18.4-44.5-30
			c-2.6-2.3,0.5-7.1,3.6-5.2c14.3,8.8,27.1,19.6,41.9,27.7c14.3,7.8,29.4,13.1,45.5,14.8c14.9,1.6,30.4,1.3,44.3,7.7
			c13.1,6.1,22,17.7,31,28.6c10.7,13.1,22.3,25.4,34.9,36.8c12.3,11.2,24.7,18.9,41.5,20.5c13.2,1.2,26.6,0,39.8,1.6
			c12.3,1.5,23.5,6,33.2,13.6c23.8,18.8,35.5,48.9,60.4,66.6c1,0.7-0.2,2.4-1.2,1.8c-22.4-14.5-34.8-38.6-53.5-56.9
			C759.9,629.4,747.8,622.4,733.3,620.5z"/>
		<path class="st11" d="M556.6,487.2c14.9,1.6,30.4,1.3,44.3,7.7c13.1,6.1,22,17.7,31,28.6c10.7,13.1,22.3,25.4,34.9,36.8
			c12.3,11.2,24.7,18.9,41.5,20.5c13.2,1.2,26.6,0,39.8,1.6c12.3,1.5,23.5,6,33.2,13.6c23.8,18.8,35.5,48.9,60.4,66.6
			c1,0.7-0.2,2.4-1.2,1.8c-22.4-14.5-34.8-38.6-53.5-56.9c-10.4-10.1-22.5-17.1-37-19.1c-13.3-1.8-26.8-0.1-40.1-1
			c-13.3-0.9-25-4.6-35.9-12.5c-13.2-9.6-24.9-21.7-35.8-33.7c-10.7-11.8-19.7-26-32.7-35.4c-13.3-9.6-29.8-9.9-45.5-11.2
			c-17.7-1.5-34.1-6.5-49.8-14.7c-15.5-8.1-31.3-18.4-44.5-30c-2.6-2.3,0.5-7.1,3.6-5.2c14.3,8.8,27.1,19.6,41.9,27.7
			C525.4,480.1,540.4,485.5,556.6,487.2z"/>
		<path class="st11" d="M726.8,698.1c-10.4-10.1-22.5-17.1-37-19.1c-13.3-1.8-26.8-0.1-40.1-1c-13.3-0.9-25-4.6-35.9-12.5
			c-13.2-9.6-24.9-21.7-35.8-33.7c-10.7-11.8-19.7-26-32.7-35.4c-13.3-9.6-29.8-9.9-45.5-11.2c-17.7-1.5-34.1-6.5-49.8-14.7
			c-15.5-8.1-31.3-18.4-44.5-30c-2.6-2.3,0.5-7.1,3.6-5.2c14.3,8.8,27.1,19.6,41.9,27.7c14.3,7.8,29.4,13.1,45.5,14.8
			c14.9,1.6,30.4,1.3,44.3,7.7c13.1,6.1,22,17.7,31,28.6c10.7,13.1,22.3,25.4,34.9,36.8c12.3,11.2,24.7,18.9,41.5,20.5
			c13.2,1.2,26.6,0,39.8,1.6c12.3,1.5,23.5,6,33.2,13.6c23.8,18.8,35.5,48.9,60.4,66.6c1,0.7-0.2,2.4-1.2,1.8
			C757.9,740.5,745.5,716.4,726.8,698.1z"/>
		<path class="st11" d="M513.1,545.7c14.9,1.6,30.4,1.3,44.3,7.7c13.1,6.1,22,17.7,31,28.6c10.7,13.1,22.3,25.4,34.9,36.8
			c12.3,11.2,24.7,18.9,41.5,20.5c13.2,1.2,26.6,0,39.8,1.6c12.3,1.5,23.5,6,33.2,13.6c23.8,18.8,35.5,48.9,60.4,66.6
			c1,0.7-0.2,2.4-1.2,1.8c-22.4-14.5-34.8-38.6-53.5-56.9c-10.4-10.1-22.5-17.1-37-19.1c-13.3-1.8-26.8-0.1-40.1-1
			c-13.3-0.9-25-4.6-35.9-12.5c-13.2-9.6-24.9-21.7-35.8-33.7c-10.7-11.8-19.7-26-32.7-35.4c-13.3-9.6-29.8-9.9-45.5-11.2
			c-17.7-1.5-34.1-6.5-49.8-14.7c-15.5-8.1-31.3-18.4-44.5-30c-2.6-2.3,0.5-7.1,3.6-5.2c14.3,8.8,27.1,19.6,41.9,27.7
			C481.8,538.6,496.9,544,513.1,545.7z"/>
		<path class="st11" d="M747.1,819.3c-22.4-14.5-34.8-38.6-53.5-56.9c-10.4-10.1-22.5-17.1-37-19.1c-13.3-1.8-26.8-0.1-40.1-1
			c-13.3-0.9-25-4.6-35.9-12.5c-13.2-9.6-24.9-21.7-35.8-33.7c-10.7-11.8-19.7-26-32.7-35.4c-13.3-9.6-29.8-9.9-45.5-11.2
			c-17.7-1.5-34.1-6.5-49.8-14.7c-15.5-8.1-31.3-18.4-44.5-30c-2.6-2.3,0.5-7.1,3.6-5.2c14.3,8.8,27.1,19.6,41.9,27.7
			c14.3,7.8,29.4,13.1,45.5,14.8c14.9,1.6,30.4,1.3,44.3,7.7c13.1,6.1,22,17.7,31,28.6c10.7,13.1,22.3,25.4,34.9,36.8
			c12.3,11.2,24.7,18.9,41.5,20.5c13.2,1.2,26.6,0,39.8,1.6c12.3,1.5,23.5,6,33.2,13.6c23.8,18.8,35.5,48.9,60.4,66.6
			C749.3,818.2,748.1,820,747.1,819.3z"/>
		<path class="st11" d="M763.7,787.1c-22.4-14.5-34.8-38.6-53.5-56.9c-10.4-10.1-22.5-17.1-37-19.1c-13.3-1.8-26.8-0.1-40.1-1
			c-13.3-0.9-25-4.6-35.9-12.5c-13.2-9.6-24.9-21.7-35.8-33.7c-10.7-11.8-19.7-26-32.7-35.4c-13.3-9.6-29.8-9.9-45.5-11.2
			c-17.7-1.5-34.1-6.5-49.8-14.7c-15.5-8.1-31.3-18.4-44.5-30c-2.6-2.3,0.5-7.1,3.6-5.2c14.3,8.8,27.1,19.6,41.9,27.7
			c14.3,7.8,29.4,13.1,45.5,14.8c14.9,1.6,30.4,1.3,44.3,7.7c13.1,6.1,22,17.7,31,28.6c10.7,13.1,22.3,25.4,34.9,36.8
			c12.3,11.2,24.7,18.9,41.5,20.5c13.2,1.2,26.6,0,39.8,1.6c12.3,1.5,23.5,6,33.2,13.6c23.8,18.8,35.5,48.9,60.4,66.6
			C765.9,786.1,764.7,787.8,763.7,787.1z"/>
		<path class="st11" d="M623.4,807.6c-13.3-1.8-26.8-0.1-40.1-1c-13.3-0.9-25-4.6-35.9-12.5c-13.2-9.6-24.9-21.7-35.8-33.7
			c-10.7-11.8-19.7-26-32.7-35.4c-13.3-9.6-29.8-9.9-45.5-11.2c-17.7-1.5-34.1-6.5-49.8-14.7c-15.5-8.1-31.3-18.4-44.5-30
			c-2.6-2.3,0.5-7.1,3.6-5.2c14.3,8.8,27.1,19.6,41.9,27.7c14.3,7.8,29.4,13.1,45.5,14.8c14.9,1.6,30.4,1.3,44.3,7.7
			c13.1,6.1,22,17.7,31,28.6c10.7,13.1,22.3,25.4,34.9,36.8c12.3,11.2,24.7,18.9,41.5,20.5c13.2,1.2,26.6,0,39.8,1.6
			c12.3,1.5,23.5,6,33.2,13.6c23.8,18.8,35.5,48.9,60.4,66.6c1,0.7-0.2,2.4-1.2,1.8c-22.4-14.5-34.8-38.6-53.5-56.9
			C650,816.5,637.9,809.5,623.4,807.6z"/>
		<path class="st11" d="M730.5,851.4c-22.4-14.5-34.8-38.6-53.5-56.9c-10.4-10.1-22.5-17.1-37-19.1c-13.3-1.8-26.8-0.1-40.1-1
			c-13.3-0.9-25-4.6-35.9-12.5c-13.2-9.6-24.9-21.7-35.8-33.7c-10.7-11.8-19.7-26-32.7-35.4c-13.3-9.6-29.8-9.9-45.5-11.2
			c-17.7-1.5-34.1-6.5-49.8-14.7c-15.5-8.1-31.3-18.4-44.5-30c-2.6-2.3,0.5-7.1,3.6-5.2c14.3,8.8,27.1,19.6,41.9,27.7
			c14.3,7.8,29.4,13.1,45.5,14.8c14.9,1.6,30.4,1.3,44.3,7.7c13.1,6.1,22,17.7,31,28.6c10.7,13.1,22.3,25.4,34.9,36.8
			c12.3,11.2,24.7,18.9,41.5,20.5c13.2,1.2,26.6,0,39.8,1.6c12.3,1.5,23.5,6,33.2,13.6c23.8,18.8,35.5,48.9,60.4,66.6
			C732.7,850.4,731.5,852.1,730.5,851.4z"/>
		<path class="st11" d="M582.6,867.9c-13.3-1.8-26.8-0.1-40.1-1c-13.3-0.9-25-4.6-35.9-12.5c-13.2-9.6-24.9-21.7-35.8-33.7
			c-10.7-11.8-19.7-26-32.7-35.4c-13.3-9.6-29.8-9.9-45.5-11.2c-17.7-1.5-34.1-6.5-49.8-14.7c-15.5-8.1-31.3-18.4-44.5-30
			c-2.6-2.3,0.5-7.1,3.6-5.2c14.3,8.8,27.1,19.6,41.9,27.7c14.3,7.8,29.4,13.1,45.5,14.8c14.9,1.6,30.4,1.3,44.3,7.7
			c13.1,6.1,22,17.7,31,28.6c10.7,13.1,22.3,25.4,34.9,36.8c12.3,11.2,24.7,18.9,41.5,20.5c13.2,1.2,26.6,0,39.8,1.6
			c12.3,1.5,23.5,6,33.2,13.6c23.8,18.8,35.5,48.9,60.4,66.6c1,0.7-0.2,2.4-1.2,1.8c-22.4-14.5-34.8-38.6-53.5-56.9
			C609.2,876.9,597.1,869.9,582.6,867.9z"/>
		<path class="st11" d="M406,734.7c14.9,1.6,30.4,1.3,44.3,7.7c13.1,6.1,22,17.7,31,28.6c10.7,13.1,22.3,25.4,34.9,36.8
			c12.3,11.2,24.7,18.9,41.5,20.5c13.2,1.2,26.6,0,39.8,1.6c12.3,1.5,23.5,6,33.2,13.6c23.8,18.8,35.5,48.9,60.4,66.6
			c1,0.7-0.2,2.4-1.2,1.8c-22.4-14.5-34.8-38.6-53.5-56.9c-10.4-10.1-22.5-17.1-37-19.1c-13.3-1.8-26.8-0.1-40.1-1
			c-13.3-0.9-25-4.6-35.9-12.5c-13.2-9.6-24.9-21.7-35.8-33.7c-10.7-11.8-19.7-26-32.7-35.4c-13.3-9.6-29.8-9.9-45.5-11.2
			c-17.7-1.5-34.1-6.5-49.8-14.7c-15.5-8.1-31.3-18.4-44.5-30c-2.6-2.3,0.5-7.1,3.6-5.2c14.3,8.8,27.1,19.6,41.9,27.7
			C374.7,727.6,389.8,732.9,406,734.7z"/>
		<path class="st11" d="M582.2,949.1c-10.4-10.1-22.5-17.1-37-19.1c-13.3-1.8-26.8-0.1-40.1-1c-13.3-0.9-25-4.6-35.9-12.5
			c-13.2-9.6-24.9-21.7-35.8-33.7c-10.7-11.8-19.7-26-32.7-35.4c-13.3-9.6-29.8-9.9-45.5-11.2c-17.7-1.5-34.1-6.5-49.8-14.7
			c-15.5-8.1-31.3-18.4-44.5-30c-2.6-2.3,0.5-7.1,3.6-5.2c14.3,8.8,27.1,19.6,41.9,27.7c14.3,7.8,29.4,13.1,45.5,14.8
			c14.9,1.6,30.4,1.3,44.3,7.7c13.1,6.1,22,17.7,31,28.6c10.7,13.1,22.3,25.4,34.9,36.8c12.3,11.2,24.7,18.9,41.5,20.5
			c13.2,1.2,26.6,0,39.8,1.6c12.3,1.5,23.5,6,33.2,13.6c23.8,18.8,35.5,48.9,60.4,66.6c1,0.7-0.2,2.4-1.2,1.8
			C613.3,991.5,600.9,967.4,582.2,949.1z"/>
		<path class="st11" d="M368.5,796.8c14.9,1.6,30.4,1.3,44.3,7.7c13.1,6.1,22,17.7,31,28.6c10.7,13.1,22.3,25.4,34.9,36.8
			c12.3,11.2,24.7,18.9,41.5,20.5c13.2,1.2,26.6,0,39.8,1.6c12.3,1.5,23.5,6,33.2,13.6c23.8,18.8,35.5,48.9,60.4,66.6
			c1,0.7-0.2,2.4-1.2,1.8c-22.4-14.5-34.8-38.6-53.5-56.9c-10.4-10.1-22.5-17.1-37-19.1c-13.3-1.8-26.8-0.1-40.1-1
			c-13.3-0.9-25-4.6-35.9-12.5c-13.2-9.6-24.9-21.7-35.8-33.7c-10.7-11.8-19.7-26-32.7-35.4c-13.3-9.6-29.8-9.9-45.5-11.2
			c-17.7-1.5-34.1-6.5-49.8-14.7c-15.5-8.1-31.3-18.4-44.5-30c-2.6-2.3,0.5-7.1,3.6-5.2c14.3,8.8,27.1,19.6,41.9,27.7
			C337.3,789.7,352.4,795,368.5,796.8z"/>
		<path class="st11" d="M602.5,1070.3c-22.4-14.5-34.8-38.6-53.5-56.9c-10.4-10.1-22.5-17.1-37-19.1c-13.3-1.8-26.8-0.1-40.1-1
			c-13.3-0.9-25-4.6-35.9-12.5c-13.2-9.6-24.9-21.7-35.8-33.7c-10.7-11.8-19.7-26-32.7-35.4c-13.3-9.6-29.8-9.9-45.5-11.2
			c-17.7-1.5-34.1-6.5-49.8-14.7c-15.5-8.1-31.3-18.4-44.5-30c-2.6-2.3,0.5-7.1,3.6-5.2c14.3,8.8,27.1,19.6,41.9,27.7
			c14.3,7.8,29.4,13.1,45.5,14.8c14.9,1.6,30.4,1.3,44.3,7.7c13.1,6.1,22,17.7,31,28.6c10.7,13.1,22.3,25.4,34.9,36.8
			c12.3,11.2,24.7,18.9,41.5,20.5c13.2,1.2,26.6,0,39.8,1.6c12.3,1.5,23.5,6,33.2,13.6c23.8,18.8,35.5,48.9,60.4,66.6
			C604.7,1069.3,603.5,1071,602.5,1070.3z"/>
		<path class="st11" d="M619.1,1038.2c-22.4-14.5-34.8-38.6-53.5-56.9c-10.4-10.1-22.5-17.1-37-19.1c-13.3-1.8-26.8-0.1-40.1-1
			c-13.3-0.9-25-4.6-35.9-12.5c-13.2-9.6-24.9-21.7-35.8-33.7c-10.7-11.8-19.7-26-32.7-35.4c-13.3-9.6-29.8-9.9-45.5-11.2
			c-17.7-1.5-34.1-6.5-49.8-14.7c-15.5-8.1-31.3-18.4-44.5-30c-2.6-2.3,0.5-7.1,3.6-5.2c14.3,8.8,27.1,19.6,41.9,27.7
			c14.3,7.8,29.4,13.1,45.5,14.8c14.9,1.6,30.4,1.3,44.3,7.7c13.1,6.1,22,17.7,31,28.6c10.7,13.1,22.3,25.4,34.9,36.8
			c12.3,11.2,24.7,18.9,41.5,20.5c13.2,1.2,26.6,0,39.8,1.6c12.3,1.5,23.5,6,33.2,13.6c23.8,18.8,35.5,48.9,60.4,66.6
			C621.3,1037.1,620.1,1038.9,619.1,1038.2z"/>
		<path class="st11" d="M478.8,1058.6c-13.3-1.8-26.8-0.1-40.1-1c-13.3-0.9-25-4.6-35.9-12.5c-13.2-9.6-24.9-21.7-35.8-33.7
			c-10.7-11.8-19.7-26-32.7-35.4c-13.3-9.6-29.8-9.9-45.5-11.2c-17.7-1.5-34.1-6.5-49.8-14.7c-15.5-8.1-31.3-18.4-44.5-30
			c-2.6-2.3,0.5-7.1,3.6-5.2c14.3,8.8,27.1,19.6,41.9,27.7c14.3,7.8,29.4,13.1,45.5,14.8c14.9,1.6,30.4,1.3,44.3,7.7
			c13.1,6.1,22,17.7,31,28.6c10.7,13.1,22.3,25.4,34.9,36.8c12.3,11.2,24.7,18.9,41.5,20.5c13.2,1.2,26.6,0,39.8,1.6
			c12.3,1.5,23.5,6,33.2,13.6c23.8,18.8,35.5,48.9,60.4,66.6c1,0.7-0.2,2.4-1.2,1.8c-22.4-14.5-34.8-38.6-53.5-56.9
			C505.4,1067.6,493.3,1060.6,478.8,1058.6z"/>
		<path class="st11" d="M585.9,1102.5c-22.4-14.5-34.8-38.6-53.5-56.9c-10.4-10.1-22.5-17.1-37-19.1c-13.3-1.8-26.8-0.1-40.1-1
			c-13.3-0.9-25-4.6-35.9-12.5c-13.2-9.6-24.9-21.7-35.8-33.7c-10.7-11.8-19.7-26-32.7-35.4c-13.3-9.6-29.8-9.9-45.5-11.2
			c-17.7-1.5-34.1-6.5-49.8-14.7c-15.5-8.1-31.3-18.4-44.5-30c-2.6-2.3,0.5-7.1,3.6-5.2c14.3,8.8,27.1,19.6,41.9,27.7
			c14.3,7.8,29.4,13.1,45.5,14.8c14.9,1.6,30.4,1.3,44.3,7.7c13.1,6.1,22,17.7,31,28.6c10.7,13.1,22.3,25.4,34.9,36.8
			c12.3,11.2,24.7,18.9,41.5,20.5c13.2,1.2,26.6,0,39.8,1.6c12.3,1.5,23.5,6,33.2,13.6c23.8,18.8,35.5,48.9,60.4,66.6
			C588.2,1101.4,587,1103.1,585.9,1102.5z"/>
		<path class="st11" d="M157.3,975.4c14.3,8.8,27.1,19.6,41.9,27.7c14.3,7.8,29.4,13.1,45.5,14.8c14.9,1.6,30.4,1.3,44.3,7.7
			c13.1,6.1,22,17.7,31,28.6c10.7,13.1,22.3,25.4,34.9,36.8c12.3,11.2,24.7,18.9,41.5,20.5c13.2,1.2,26.6,0,39.8,1.6
			c12.3,1.5,23.5,6,33.2,13.6c23.8,18.8,35.5,48.9,60.4,66.6c1,0.7-0.2,2.4-1.2,1.8c-22.4-14.5-34.8-38.6-53.5-56.9
			c-10.4-10.1-22.5-17.1-37-19.1c-13.3-1.8-26.8-0.1-40.1-1c-13.3-0.9-25-4.6-35.9-12.5c-13.2-9.6-24.9-21.7-35.8-33.7
			c-10.7-11.8-19.7-26-32.7-35.4c-13.3-9.6-29.8-9.9-45.5-11.2c-17.7-1.5-34.1-6.5-49.8-14.7c-15.5-8.1-31.3-18.4-44.5-30
			C151.1,978.2,154.2,973.4,157.3,975.4z"/>
		<path class="st11" d="M261.4,985.7c14.9,1.6,30.4,1.3,44.3,7.7c13.1,6.1,22,17.7,31,28.6c10.7,13.1,22.3,25.4,34.9,36.8
			c12.3,11.2,24.7,18.9,41.5,20.5c13.2,1.2,26.6,0,39.8,1.6c12.3,1.5,23.5,6,33.2,13.6c23.8,18.8,35.5,48.9,60.4,66.6
			c1,0.7-0.2,2.4-1.2,1.8c-22.4-14.5-34.8-38.6-53.5-56.9c-10.4-10.1-22.5-17.1-37-19.1c-13.3-1.8-26.8-0.1-40.1-1
			c-13.3-0.9-25-4.6-35.9-12.5c-13.2-9.6-24.9-21.7-35.8-33.7c-10.7-11.8-19.7-26-32.7-35.4c-13.3-9.6-29.8-9.9-45.5-11.2
			c-17.7-1.5-34.1-6.5-49.8-14.7c-15.5-8.1-31.3-18.4-44.5-30c-2.6-2.3,0.5-7.1,3.6-5.2c14.3,8.8,27.1,19.6,41.9,27.7
			C230.1,978.6,245.2,984,261.4,985.7z"/>
	</g>
</g>
<g>
	<defs>
		<path id="SVGID_21_" d="M517.4,385.5c-23,57.1-100.6,114.9-100.6,114.9S253,443.9,283.3,454.9c0.2,0.1-37-104.4-25-157.4
			C271.5,239,435.4,93.6,476.4,58.7c4.2-3.6,10.9-1.3,12.1,4C500.3,115.2,539.5,330.5,517.4,385.5z"/>
	</defs>
	<clipPath id="SVGID_6_">
		<use xlink:href="#SVGID_21_"  style="overflow:visible;"/>
	</clipPath>
	<path style="clip-path:url(#SVGID_6_);fill:none;" d="M209.8,609.8c5.2-44.7,11.7-52.6,33.6-90.6c2.6-4.5,5.4-5.1,10.1-3.5
		c40.2,13.9,80.4,27.6,120.7,41.3c4.3,1.5,6.5,3.5,5.8,8.3c-6.3,45.2-4.2,58-29.9,96.9c-13.2,19.9-30.5,34.4-55.4,37.6
		c-46.7,5.9-87.2-31.1-85.2-78.1C209.6,617.5,209.7,613.4,209.8,609.8z"/>
	<g class="st3">
		<path class="st11" d="M298.6,1.1c12.2,5.6,22.7,14.2,34.5,20.5c11.7,6.3,23.6,9.4,37,8.6c16.2-1.1,32.6-5.1,48.3-9.4
			c15.3-4.3,30.5-11.5,46.5-12.6c16.4-1.1,30.5,7.5,44.5,14.8c15.8,8.1,32.3,12.7,50,14.1c17.5,1.4,36.3,1.2,53.6-1.7
			c3.5-0.6,3.3-6.3-0.3-6.3c-16.8-0.1-33.4,2.1-50.2,1.1c-16.2-1-31.8-4.5-46.5-11.7c-13.5-6.6-26.4-15.1-41.6-17.1
			c-14.3-1.8-28.1,3.2-41.4,7.7c-16,5.4-32.4,9.6-49.1,12.5c-16.4,2.9-31,2.9-46-4.8c-11.9-6-22.5-14.1-34.5-19.8
			c-11.2-5.3-23-7.5-35.4-6.1c-30.1,3.3-56.1,22.5-86.6,24.2c-1.2,0.1-1.1,2.2,0.1,2.2c26.7-0.4,50-14.1,75.6-19.7
			C271.3-5.5,285.2-4.9,298.6,1.1z"/>
		<path class="st11" d="M519-17.5c-13.5-6.6-26.4-15.1-41.6-17.1c-14.3-1.8-28.1,3.2-41.4,7.7c-16,5.4-32.4,9.6-49.1,12.5
			c-16.4,2.9-31,2.9-46-4.8c-11.9-6-22.5-14.1-34.5-19.8c-11.2-5.3-23-7.5-35.4-6.1C240.9-41.9,215-22.7,184.5-21
			c-1.2,0.1-1.1,2.2,0.1,2.2c26.7-0.4,50-14.1,75.6-19.7c14.2-3.1,28.2-2.5,41.5,3.6c12.2,5.6,22.7,14.2,34.5,20.5
			c11.7,6.3,23.6,9.4,37,8.6c16.2-1.1,32.6-5.1,48.3-9.4c15.3-4.3,30.5-11.5,46.5-12.6c16.4-1.1,30.5,7.5,44.5,14.8
			c15.8,8.1,32.3,12.7,50,14.1c17.5,1.4,36.3,1.2,53.6-1.7c3.5-0.6,3.3-6.3-0.3-6.3c-16.8-0.1-33.4,2.1-50.2,1.1
			C549.3-6.9,533.7-10.4,519-17.5z"/>
		<path class="st11" d="M255.7,70.1c14.2-3.1,28.2-2.5,41.5,3.6c12.2,5.6,22.7,14.2,34.5,20.5c11.7,6.3,23.6,9.4,37,8.6
			c16.2-1.1,32.6-5.1,48.3-9.4c15.3-4.3,30.5-11.5,46.5-12.6c16.4-1.1,30.5,7.5,44.5,14.8c15.8,8.1,32.3,12.7,50,14.1
			c17.5,1.4,36.3,1.2,53.6-1.7c3.5-0.6,3.3-6.3-0.3-6.3c-16.8-0.1-33.4,2.1-50.2,1.1c-16.2-1-31.8-4.5-46.5-11.7
			c-13.5-6.6-26.4-15.1-41.6-17.1c-14.3-1.8-28.1,3.2-41.4,7.7c-16,5.4-32.4,9.6-49.1,12.5c-16.4,2.9-31,2.9-46-4.8
			c-11.9-6-22.5-14.1-34.5-19.8c-11.2-5.3-23-7.5-35.4-6.1c-30.1,3.3-56.1,22.5-86.6,24.2c-1.2,0.1-1.1,2.2,0.1,2.2
			C206.7,89.4,230.1,75.6,255.7,70.1z"/>
		<path class="st11" d="M517.6,55c-13.5-6.6-26.4-15.1-41.6-17.1c-14.3-1.8-28.1,3.2-41.4,7.7c-16,5.4-32.4,9.6-49.1,12.5
			c-16.4,2.9-31,2.9-46-4.8c-11.9-6-22.5-14.1-34.5-19.8c-11.2-5.3-23-7.5-35.4-6.1c-30.1,3.3-56.1,22.5-86.6,24.2
			c-1.2,0.1-1.1,2.2,0.1,2.2c26.7-0.4,50-14.1,75.6-19.7c14.2-3.1,28.2-2.5,41.5,3.6c12.2,5.6,22.7,14.2,34.5,20.5
			c11.7,6.3,23.6,9.4,37,8.6c16.2-1.1,32.6-5.1,48.3-9.4c15.3-4.3,30.5-11.5,46.5-12.6c16.4-1.1,30.5,7.5,44.5,14.8
			c15.8,8.1,32.3,12.7,50,14.1c17.5,1.4,36.3,1.2,53.6-1.7c3.5-0.6,3.3-6.3-0.3-6.3c-16.8-0.1-33.4,2.1-50.2,1.1
			C547.9,65.6,532.2,62.1,517.6,55z"/>
		<path class="st11" d="M173.9,161.8c26.7-0.4,50-14.1,75.6-19.7c14.2-3.1,28.2-2.5,41.5,3.6c12.2,5.6,22.7,14.2,34.5,20.5
			c11.7,6.3,23.6,9.4,37,8.6c16.2-1.1,32.6-5.1,48.3-9.4c15.3-4.3,30.5-11.5,46.5-12.6c16.4-1.1,30.5,7.5,44.5,14.8
			c15.8,8.1,32.3,12.7,50,14.1c17.5,1.4,36.3,1.2,53.6-1.7c3.5-0.6,3.3-6.3-0.3-6.3c-16.8-0.1-33.4,2.1-50.2,1.1
			c-16.2-1-31.8-4.5-46.5-11.7c-13.5-6.6-26.4-15.1-41.6-17.1c-14.3-1.8-28.1,3.2-41.4,7.7c-16,5.4-32.4,9.6-49.1,12.5
			c-16.4,2.9-31,2.9-46-4.8c-11.9-6-22.5-14.1-34.5-19.8c-11.2-5.3-23-7.5-35.4-6.1c-30.1,3.3-56.1,22.5-86.6,24.2
			C172.6,159.7,172.7,161.8,173.9,161.8z"/>
		<path class="st11" d="M177,125.8c26.7-0.4,50-14.1,75.6-19.7c14.2-3.1,28.2-2.5,41.5,3.6c12.2,5.6,22.7,14.2,34.5,20.5
			c11.7,6.3,23.6,9.4,37,8.6c16.2-1.1,32.6-5.1,48.3-9.4c15.3-4.3,30.5-11.5,46.5-12.6c16.4-1.1,30.5,7.5,44.5,14.8
			c15.8,8.1,32.3,12.7,50,14.1c17.5,1.4,36.3,1.2,53.6-1.7c3.5-0.6,3.3-6.3-0.3-6.3c-16.8-0.1-33.4,2.1-50.2,1.1
			c-16.2-1-31.8-4.5-46.5-11.7c-13.5-6.6-26.4-15.1-41.6-17.1c-14.3-1.8-28.1,3.2-41.4,7.7c-16,5.4-32.4,9.6-49.1,12.5
			c-16.4,2.9-31,2.9-46-4.8c-11.9-6-22.5-14.1-34.5-19.8c-11.2-5.3-23-7.5-35.4-6.1c-30.1,3.3-56.1,22.5-86.6,24.2
			C175.6,123.7,175.7,125.8,177,125.8z"/>
		<path class="st11" d="M284.8,217.8c12.2,5.6,22.7,14.2,34.5,20.5c11.7,6.3,23.6,9.4,37,8.6c16.2-1.1,32.6-5.1,48.3-9.4
			c15.3-4.3,30.5-11.5,46.5-12.6c16.4-1.1,30.5,7.5,44.5,14.8c15.8,8.1,32.3,12.7,50,14.1c17.5,1.4,36.3,1.2,53.6-1.7
			c3.5-0.6,3.3-6.3-0.3-6.3c-16.8-0.1-33.4,2.1-50.2,1.1c-16.2-1-31.8-4.5-46.5-11.7c-13.5-6.6-26.4-15.1-41.6-17.1
			c-14.3-1.8-28.1,3.2-41.4,7.7c-16,5.4-32.4,9.6-49.1,12.5c-16.4,2.9-31,2.9-46-4.8c-11.9-6-22.5-14.1-34.5-19.8
			c-11.2-5.3-23-7.5-35.4-6.1c-30.1,3.3-56.1,22.5-86.6,24.2c-1.2,0.1-1.1,2.2,0.1,2.2c26.7-0.4,50-14.1,75.6-19.7
			C257.5,211.2,271.5,211.7,284.8,217.8z"/>
		<path class="st11" d="M170.8,197.9c26.7-0.4,50-14.1,75.6-19.7c14.2-3.1,28.2-2.5,41.5,3.6c12.2,5.6,22.7,14.2,34.5,20.5
			c11.7,6.3,23.6,9.4,37,8.6c16.2-1.1,32.6-5.1,48.3-9.4c15.3-4.3,30.5-11.5,46.5-12.6c16.4-1.1,30.5,7.5,44.5,14.8
			c15.8,8.1,32.3,12.7,50,14.1c17.5,1.4,36.3,1.2,53.6-1.7c3.5-0.6,3.3-6.3-0.3-6.3c-16.8-0.1-33.4,2.1-50.2,1.1
			c-16.2-1-31.8-4.5-46.5-11.7c-13.5-6.6-26.4-15.1-41.6-17.1c-14.3-1.8-28.1,3.2-41.4,7.7c-16,5.4-32.4,9.6-49.1,12.5
			c-16.4,2.9-31,2.9-46-4.8c-11.9-6-22.5-14.1-34.5-19.8c-11.2-5.3-23-7.5-35.4-6.1c-30.1,3.3-56.1,22.5-86.6,24.2
			C169.5,195.8,169.6,197.9,170.8,197.9z"/>
		<path class="st11" d="M287.2,290.6c12.2,5.6,22.7,14.2,34.5,20.5c11.7,6.3,23.6,9.4,37,8.6c16.2-1.1,32.6-5.1,48.3-9.4
			c15.3-4.3,30.5-11.5,46.5-12.6c16.4-1.1,30.5,7.5,44.5,14.8c15.8,8.1,32.3,12.7,50,14.1c17.5,1.4,36.3,1.2,53.6-1.7
			c3.5-0.6,3.3-6.3-0.3-6.3c-16.8-0.1-33.4,2.1-50.2,1.1c-16.2-1-31.8-4.5-46.5-11.7c-13.5-6.6-26.4-15.1-41.6-17.1
			c-14.3-1.8-28.1,3.2-41.4,7.7c-16,5.4-32.4,9.6-49.1,12.5c-16.4,2.9-31,2.9-46-4.8c-11.9-6-22.5-14.1-34.5-19.8
			c-11.2-5.3-23-7.5-35.4-6.1c-30.1,3.3-56.1,22.5-86.6,24.2c-1.2,0.1-1.1,2.2,0.1,2.2c26.7-0.4,50-14.1,75.6-19.7
			C259.9,284,273.8,284.5,287.2,290.6z"/>
		<path class="st11" d="M507.6,272c-13.5-6.6-26.4-15.1-41.6-17.1c-14.3-1.8-28.1,3.2-41.4,7.7c-16,5.4-32.4,9.6-49.1,12.5
			c-16.4,2.9-31,2.9-46-4.8c-11.9-6-22.5-14.1-34.5-19.8c-11.2-5.3-23-7.5-35.4-6.1c-30.1,3.3-56.1,22.5-86.6,24.2
			c-1.2,0.1-1.1,2.2,0.1,2.2c26.7-0.4,50-14.1,75.6-19.7c14.2-3.1,28.2-2.5,41.5,3.6c12.2,5.6,22.7,14.2,34.5,20.5
			c11.7,6.3,23.6,9.4,37,8.6c16.2-1.1,32.6-5.1,48.3-9.4c15.3-4.3,30.5-11.5,46.5-12.6c16.4-1.1,30.5,7.5,44.5,14.8
			c15.8,8.1,32.3,12.7,50,14.1c17.5,1.4,36.3,1.2,53.6-1.7c3.5-0.6,3.3-6.3-0.3-6.3c-16.8-0.1-33.4,2.1-50.2,1.1
			C537.9,282.6,522.3,279.1,507.6,272z"/>
		<path class="st11" d="M251.3,359.8c14.2-3.1,28.2-2.5,41.5,3.6c12.2,5.6,22.7,14.2,34.5,20.5c11.7,6.3,23.6,9.4,37,8.6
			c16.2-1.1,32.6-5.1,48.3-9.4c15.3-4.3,30.5-11.5,46.5-12.6c16.4-1.1,30.5,7.5,44.5,14.8c15.8,8.1,32.3,12.7,50,14.1
			c17.5,1.4,36.3,1.2,53.6-1.7c3.5-0.6,3.3-6.3-0.3-6.3c-16.8-0.1-33.4,2.1-50.2,1.1c-16.2-1-31.8-4.5-46.5-11.7
			c-13.5-6.6-26.4-15.1-41.6-17.1c-14.3-1.8-28.1,3.2-41.4,7.7c-16,5.4-32.4,9.6-49.1,12.5c-16.4,2.9-31,2.9-46-4.8
			c-11.9-6-22.5-14.1-34.5-19.8c-11.2-5.3-23-7.5-35.4-6.1c-30.1,3.3-56.1,22.5-86.6,24.2c-1.2,0.1-1.1,2.2,0.1,2.2
			C202.4,379.1,225.7,365.3,251.3,359.8z"/>
		<path class="st11" d="M513.3,344.7c-13.5-6.6-26.4-15.1-41.6-17.1c-14.3-1.8-28.1,3.2-41.4,7.7c-16,5.4-32.4,9.6-49.1,12.5
			c-16.4,2.9-31,2.9-46-4.8c-11.9-6-22.5-14.1-34.5-19.8c-11.2-5.3-23-7.5-35.4-6.1c-30.1,3.3-56.1,22.5-86.6,24.2
			c-1.2,0.1-1.1,2.2,0.1,2.2c26.7-0.4,50-14.1,75.6-19.7c14.2-3.1,28.2-2.5,41.5,3.6c12.2,5.6,22.7,14.2,34.5,20.5
			c11.7,6.3,23.6,9.4,37,8.6c16.2-1.1,32.6-5.1,48.3-9.4c15.3-4.3,30.5-11.5,46.5-12.6c16.4-1.1,30.5,7.5,44.5,14.8
			c15.8,8.1,32.3,12.7,50,14.1c17.5,1.4,36.3,1.2,53.6-1.7c3.5-0.6,3.3-6.3-0.3-6.3c-16.8-0.1-33.4,2.1-50.2,1.1
			C543.5,355.3,527.9,351.8,513.3,344.7z"/>
		<path class="st11" d="M169.6,451.5c26.7-0.4,50-14.1,75.6-19.7c14.2-3.1,28.2-2.5,41.5,3.6c12.2,5.6,22.7,14.2,34.5,20.5
			c11.7,6.3,23.6,9.4,37,8.6c16.2-1.1,32.6-5.1,48.3-9.4c15.3-4.3,30.5-11.5,46.5-12.6c16.4-1.1,30.5,7.5,44.5,14.8
			c15.8,8.1,32.3,12.7,50,14.1c17.5,1.4,36.3,1.2,53.6-1.7c3.5-0.6,3.3-6.3-0.3-6.3c-16.8-0.1-33.4,2.1-50.2,1.1
			c-16.2-1-31.8-4.5-46.5-11.7c-13.5-6.6-26.4-15.1-41.6-17.1c-14.3-1.8-28.1,3.2-41.4,7.7c-16,5.4-32.4,9.6-49.1,12.5
			c-16.4,2.9-31,2.9-46-4.8c-11.9-6-22.5-14.1-34.5-19.8c-11.2-5.3-23-7.5-35.4-6.1c-30.1,3.3-56.1,22.5-86.6,24.2
			C168.2,449.4,168.3,451.5,169.6,451.5z"/>
		<path class="st11" d="M172.6,415.5c26.7-0.4,50-14.1,75.6-19.7c14.2-3.1,28.2-2.5,41.5,3.6c12.2,5.6,22.7,14.2,34.5,20.5
			c11.7,6.3,23.6,9.4,37,8.6c16.2-1.1,32.6-5.1,48.3-9.4c15.3-4.3,30.5-11.5,46.5-12.6c16.4-1.1,30.5,7.5,44.5,14.8
			c15.8,8.1,32.3,12.7,50,14.1c17.5,1.4,36.3,1.2,53.6-1.7c3.5-0.6,3.3-6.3-0.3-6.3c-16.8-0.1-33.4,2.1-50.2,1.1
			c-16.2-1-31.8-4.5-46.5-11.7c-13.5-6.6-26.4-15.1-41.6-17.1c-14.3-1.8-28.1,3.2-41.4,7.7c-16,5.4-32.4,9.6-49.1,12.5
			c-16.4,2.9-31,2.9-46-4.8c-11.9-6-22.5-14.1-34.5-19.8c-11.2-5.3-23-7.5-35.4-6.1c-30.1,3.3-56.1,22.5-86.6,24.2
			C171.3,413.4,171.4,415.5,172.6,415.5z"/>
		<path class="st11" d="M280.5,507.5c12.2,5.6,22.7,14.2,34.5,20.5c11.7,6.3,23.6,9.4,37,8.6c16.2-1.1,32.6-5.1,48.3-9.4
			c15.3-4.3,30.5-11.5,46.5-12.6c16.4-1.1,30.5,7.5,44.5,14.8c15.8,8.1,32.3,12.7,50,14.1c17.5,1.4,36.3,1.2,53.6-1.7
			c3.5-0.6,3.3-6.3-0.3-6.3c-16.8-0.1-33.4,2.1-50.2,1.1c-16.2-1-31.8-4.5-46.5-11.7c-13.5-6.6-26.4-15.1-41.6-17.1
			c-14.3-1.8-28.1,3.2-41.4,7.7c-16,5.4-32.4,9.6-49.1,12.5c-16.4,2.9-31,2.9-46-4.8c-11.9-6-22.5-14.1-34.5-19.8
			c-11.2-5.3-23-7.5-35.4-6.1c-30.1,3.3-56.1,22.5-86.6,24.2c-1.2,0.1-1.1,2.2,0.1,2.2c26.7-0.4,50-14.1,75.6-19.7
			C253.2,500.9,267.1,501.4,280.5,507.5z"/>
		<path class="st11" d="M166.5,487.6c26.7-0.4,50-14.1,75.6-19.7c14.2-3.1,28.2-2.5,41.5,3.6c12.2,5.6,22.7,14.2,34.5,20.5
			c11.7,6.3,23.6,9.4,37,8.6c16.2-1.1,32.6-5.1,48.3-9.4c15.3-4.3,30.5-11.5,46.5-12.6c16.4-1.1,30.5,7.5,44.5,14.8
			c15.8,8.1,32.3,12.7,50,14.1c17.5,1.4,36.3,1.2,53.6-1.7c3.5-0.6,3.3-6.3-0.3-6.3c-16.8-0.1-33.4,2.1-50.2,1.1
			c-16.2-1-31.8-4.5-46.5-11.7c-13.5-6.6-26.4-15.1-41.6-17.1c-14.3-1.8-28.1,3.2-41.4,7.7c-16,5.4-32.4,9.6-49.1,12.5
			c-16.4,2.9-31,2.9-46-4.8c-11.9-6-22.5-14.1-34.5-19.8c-11.2-5.3-23-7.5-35.4-6.1c-30.1,3.3-56.1,22.5-86.6,24.2
			C165.1,485.5,165.2,487.6,166.5,487.6z"/>
		<path class="st11" d="M282.8,580.3c12.2,5.6,22.7,14.2,34.5,20.5c11.7,6.3,23.6,9.4,37,8.6c16.2-1.1,32.6-5.1,48.3-9.4
			c15.3-4.3,30.5-11.5,46.5-12.6c16.4-1.1,30.5,7.5,44.5,14.8c15.8,8.1,32.3,12.7,50,14.1c17.5,1.4,36.3,1.2,53.6-1.7
			c3.5-0.6,3.3-6.3-0.3-6.3c-16.8-0.1-33.4,2.1-50.2,1.1c-16.2-1-31.8-4.5-46.5-11.7c-13.5-6.6-26.4-15.1-41.6-17.1
			c-14.3-1.8-28.1,3.2-41.4,7.7c-16,5.4-32.4,9.6-49.1,12.5c-16.4,2.9-31,2.9-46-4.8c-11.9-6-22.5-14.1-34.5-19.8
			c-11.2-5.3-23-7.5-35.4-6.1c-30.1,3.3-56.1,22.5-86.6,24.2c-1.2,0.1-1.1,2.2,0.1,2.2c26.7-0.4,50-14.1,75.6-19.7
			C255.5,573.7,269.5,574.2,282.8,580.3z"/>
		<path class="st11" d="M503.3,561.7c-13.5-6.6-26.4-15.1-41.6-17.1c-14.3-1.8-28.1,3.2-41.4,7.7c-16,5.4-32.4,9.6-49.1,12.5
			c-16.4,2.9-31,2.9-46-4.8c-11.9-6-22.5-14.1-34.5-19.8c-11.2-5.3-23-7.5-35.4-6.1c-30.1,3.3-56.1,22.5-86.6,24.2
			c-1.2,0.1-1.1,2.2,0.1,2.2c26.7-0.4,50-14.1,75.6-19.7c14.2-3.1,28.2-2.5,41.5,3.6c12.2,5.6,22.7,14.2,34.5,20.5
			c11.7,6.3,23.6,9.4,37,8.6c16.2-1.1,32.6-5.1,48.3-9.4c15.3-4.3,30.5-11.5,46.5-12.6c16.4-1.1,30.5,7.5,44.5,14.8
			c15.8,8.1,32.3,12.7,50,14.1c17.5,1.4,36.3,1.2,53.6-1.7c3.5-0.6,3.3-6.3-0.3-6.3c-16.8-0.1-33.4,2.1-50.2,1.1
			C533.6,572.3,517.9,568.8,503.3,561.7z"/>
		<path class="st11" d="M239.9,649.3c14.2-3.1,28.2-2.5,41.5,3.6c12.2,5.6,22.7,14.2,34.5,20.5c11.7,6.3,23.6,9.4,37,8.6
			c16.2-1.1,32.6-5.1,48.3-9.4c15.3-4.3,30.5-11.5,46.5-12.6c16.4-1.1,30.5,7.5,44.5,14.8c15.8,8.1,32.3,12.7,50,14.1
			c17.5,1.4,36.3,1.2,53.6-1.7c3.5-0.6,3.3-6.3-0.3-6.3c-16.8-0.1-33.4,2.1-50.2,1.1c-16.2-1-31.8-4.5-46.5-11.7
			c-13.5-6.6-26.4-15.1-41.6-17.1c-14.3-1.8-28.1,3.2-41.4,7.7c-16,5.4-32.4,9.6-49.1,12.5c-16.4,2.9-31,2.9-46-4.8
			c-11.9-6-22.5-14.1-34.5-19.8c-11.2-5.3-23-7.5-35.4-6.1c-30.1,3.3-56.1,22.5-86.6,24.2c-1.2,0.1-1.1,2.2,0.1,2.2
			C191,668.6,214.3,654.8,239.9,649.3z"/>
		<path class="st11" d="M501.9,634.1c-13.5-6.6-26.4-15.1-41.6-17.1c-14.3-1.8-28.1,3.2-41.4,7.7c-16,5.4-32.4,9.6-49.1,12.5
			c-16.4,2.9-31,2.9-46-4.8c-11.9-6-22.5-14.1-34.5-19.8c-11.2-5.3-23-7.5-35.4-6.1c-30.1,3.3-56.1,22.5-86.6,24.2
			c-1.2,0.1-1.1,2.2,0.1,2.2c26.7-0.4,50-14.1,75.6-19.7c14.2-3.1,28.2-2.5,41.5,3.6c12.2,5.6,22.7,14.2,34.5,20.5
			c11.7,6.3,23.6,9.4,37,8.6c16.2-1.1,32.6-5.1,48.3-9.4c15.3-4.3,30.5-11.5,46.5-12.6c16.4-1.1,30.5,7.5,44.5,14.8
			c15.8,8.1,32.3,12.7,50,14.1c17.5,1.4,36.3,1.2,53.6-1.7c3.5-0.6,3.3-6.3-0.3-6.3c-16.8-0.1-33.4,2.1-50.2,1.1
			C532.1,644.8,516.5,641.3,501.9,634.1z"/>
		<path class="st11" d="M158.2,741c26.7-0.4,50-14.1,75.6-19.7c14.2-3.1,28.2-2.5,41.5,3.6c12.2,5.6,22.7,14.2,34.5,20.5
			c11.7,6.3,23.6,9.4,37,8.6c16.2-1.1,32.6-5.1,48.3-9.4c15.3-4.3,30.5-11.5,46.5-12.6c16.4-1.1,30.5,7.5,44.5,14.8
			c15.8,8.1,32.3,12.7,50,14.1c17.5,1.4,36.3,1.2,53.6-1.7c3.5-0.6,3.3-6.3-0.3-6.3c-16.8-0.1-33.4,2.1-50.2,1.1
			c-16.2-1-31.8-4.5-46.5-11.7c-13.5-6.6-26.4-15.1-41.6-17.1c-14.3-1.8-28.1,3.2-41.4,7.7c-16,5.4-32.4,9.6-49.1,12.5
			c-16.4,2.9-31,2.9-46-4.8c-11.9-6-22.5-14.1-34.5-19.8c-11.2-5.3-23-7.5-35.4-6.1c-30.1,3.3-56.1,22.5-86.6,24.2
			C156.8,738.9,156.9,741,158.2,741z"/>
		<path class="st11" d="M161.2,705c26.7-0.4,50-14.1,75.6-19.7c14.2-3.1,28.2-2.5,41.5,3.6c12.2,5.6,22.7,14.2,34.5,20.5
			c11.7,6.3,23.6,9.4,37,8.6c16.2-1.1,32.6-5.1,48.3-9.4c15.3-4.3,30.5-11.5,46.5-12.6c16.4-1.1,30.5,7.5,44.5,14.8
			c15.8,8.1,32.3,12.7,50,14.1c17.5,1.4,36.3,1.2,53.6-1.7c3.5-0.6,3.3-6.3-0.3-6.3c-16.8-0.1-33.4,2.1-50.2,1.1
			c-16.2-1-31.8-4.5-46.5-11.7c-13.5-6.6-26.4-15.1-41.6-17.1c-14.3-1.8-28.1,3.2-41.4,7.7c-16,5.4-32.4,9.6-49.1,12.5
			c-16.4,2.9-31,2.9-46-4.8c-11.9-6-22.5-14.1-34.5-19.8c-11.2-5.3-23-7.5-35.4-6.1c-30.1,3.3-56.1,22.5-86.6,24.2
			C159.9,702.9,160,705,161.2,705z"/>
		<path class="st11" d="M269.1,797c12.2,5.6,22.7,14.2,34.5,20.5c11.7,6.3,23.6,9.4,37,8.6c16.2-1.1,32.6-5.1,48.3-9.4
			c15.3-4.3,30.5-11.5,46.5-12.6c16.4-1.1,30.5,7.5,44.5,14.8c15.8,8.1,32.3,12.7,50,14.1c17.5,1.4,36.3,1.2,53.6-1.7
			c3.5-0.6,3.3-6.3-0.3-6.3c-16.8-0.1-33.4,2.1-50.2,1.1c-16.2-1-31.8-4.5-46.5-11.7c-13.5-6.6-26.4-15.1-41.6-17.1
			c-14.3-1.8-28.1,3.2-41.4,7.7c-16,5.4-32.4,9.6-49.1,12.5c-16.4,2.9-31,2.9-46-4.8c-11.9-6-22.5-14.1-34.5-19.8
			c-11.2-5.3-23-7.5-35.4-6.1c-30.1,3.3-56.1,22.5-86.6,24.2c-1.2,0.1-1.1,2.2,0.1,2.2c26.7-0.4,50-14.1,75.6-19.7
			C241.8,790.4,255.8,790.9,269.1,797z"/>
		<path class="st11" d="M155.1,777.1c26.7-0.4,50-14.1,75.6-19.7c14.2-3.1,28.2-2.5,41.5,3.6c12.2,5.6,22.7,14.2,34.5,20.5
			c11.7,6.3,23.6,9.4,37,8.6c16.2-1.1,32.6-5.1,48.3-9.4c15.3-4.3,30.5-11.5,46.5-12.6c16.4-1.1,30.5,7.5,44.5,14.8
			c15.8,8.1,32.3,12.7,50,14.1c17.5,1.4,36.3,1.2,53.6-1.7c3.5-0.6,3.3-6.3-0.3-6.3c-16.8-0.1-33.4,2.1-50.2,1.1
			c-16.2-1-31.8-4.5-46.5-11.7c-13.5-6.6-26.4-15.1-41.6-17.1c-14.3-1.8-28.1,3.2-41.4,7.7c-16,5.4-32.4,9.6-49.1,12.5
			c-16.4,2.9-31,2.9-46-4.8c-11.9-6-22.5-14.1-34.5-19.8c-11.2-5.3-23-7.5-35.4-6.1c-30.1,3.3-56.1,22.5-86.6,24.2
			C153.8,775,153.8,777.1,155.1,777.1z"/>
		<path class="st11" d="M585.5,897.8c-16.8-0.1-33.4,2.1-50.2,1.1c-16.2-1-31.8-4.5-46.5-11.7c-13.5-6.6-26.4-15.1-41.6-17.1
			c-14.3-1.8-28.1,3.2-41.4,7.7c-16,5.4-32.4,9.6-49.1,12.5c-16.4,2.9-31,2.9-46-4.8c-11.9-6-22.5-14.1-34.5-19.8
			c-11.2-5.3-23-7.5-35.4-6.1c-30.1,3.3-56.1,22.5-86.6,24.2c-1.2,0.1-1.1,2.2,0.1,2.2c26.7-0.4,50-14.1,75.6-19.7
			c14.2-3.1,28.2-2.5,41.5,3.6c12.2,5.6,22.7,14.2,34.5,20.5c11.7,6.3,23.6,9.4,37,8.6c16.2-1.1,32.6-5.1,48.3-9.4
			c15.3-4.3,30.5-11.5,46.5-12.6c16.4-1.1,30.5,7.5,44.5,14.8c15.8,8.1,32.3,12.7,50,14.1c17.5,1.4,36.3,1.2,53.6-1.7
			C589.3,903.5,589.2,897.8,585.5,897.8z"/>
		<path class="st11" d="M491.9,851.1c-13.5-6.6-26.4-15.1-41.6-17.1c-14.3-1.8-28.1,3.2-41.4,7.7c-16,5.4-32.4,9.6-49.1,12.5
			c-16.4,2.9-31,2.9-46-4.8c-11.9-6-22.5-14.1-34.5-19.8c-11.2-5.3-23-7.5-35.4-6.1c-30.1,3.3-56.1,22.5-86.6,24.2
			c-1.2,0.1-1.1,2.2,0.1,2.2c26.7-0.4,50-14.1,75.6-19.7c14.2-3.1,28.2-2.5,41.5,3.6c12.2,5.6,22.7,14.2,34.5,20.5
			c11.7,6.3,23.6,9.4,37,8.6c16.2-1.1,32.6-5.1,48.3-9.4c15.3-4.3,30.5-11.5,46.5-12.6c16.4-1.1,30.5,7.5,44.5,14.8
			c15.8,8.1,32.3,12.7,50,14.1c17.5,1.4,36.3,1.2,53.6-1.7c3.5-0.6,3.3-6.3-0.3-6.3c-16.8-0.1-33.4,2.1-50.2,1.1
			C522.2,861.8,506.6,858.3,491.9,851.1z"/>
	</g>
</g>
<g>
	<defs>
		<path id="SVGID_23_" d="M235.6,606.6c5.2-44.7,11.7-52.6,33.6-90.6c2.6-4.5,5.4-5.1,10.1-3.5c40.2,13.9,80.4,27.6,120.7,41.3
			c4.3,1.5,6.5,3.5,5.8,8.3c-6.3,45.2-4.2,58-29.9,96.9c-13.2,19.9-30.5,34.4-55.4,37.6c-46.7,5.9-87.2-31.1-85.2-78.1
			C235.4,614.3,235.5,610.2,235.6,606.6z"/>
	</defs>
	<clipPath id="SVGID_8_">
		<use xlink:href="#SVGID_23_"  style="overflow:visible;"/>
	</clipPath>
	<g class="st4">
		<path class="st11" d="M336.8-17.9c12.2,5.6,22.7,14.2,34.5,20.5c11.7,6.3,23.6,9.4,37,8.6c16.2-1.1,32.6-5.1,48.3-9.4
			c15.3-4.3,30.5-11.5,46.5-12.6c16.4-1.1,30.5,7.5,44.5,14.8c15.8,8.1,32.3,12.7,50,14.1c17.5,1.4,36.3,1.2,53.6-1.7
			c3.5-0.6,3.3-6.3-0.3-6.3c-16.8-0.1-33.4,2.1-50.2,1.1c-16.2-1-31.8-4.5-46.5-11.7c-13.5-6.6-26.4-15.1-41.6-17.1
			c-14.3-1.8-28.1,3.2-41.4,7.7c-16,5.4-32.4,9.6-49.1,12.5c-16.4,2.9-31,2.9-46-4.8c-11.9-6-22.5-14.1-34.5-19.8
			c-11.2-5.3-23-7.5-35.4-6.1C276-24.8,250.1-5.6,219.6-3.9c-1.2,0.1-1.1,2.2,0.1,2.2c26.7-0.4,50-14.1,75.6-19.7
			C309.5-24.5,323.5-24,336.8-17.9z"/>
		<path class="st11" d="M339.2,54.9c12.2,5.6,22.7,14.2,34.5,20.5c11.7,6.3,23.6,9.4,37,8.6c16.2-1.1,32.6-5.1,48.3-9.4
			c15.3-4.3,30.5-11.5,46.5-12.6c16.4-1.1,30.5,7.5,44.5,14.8c15.8,8.1,32.3,12.7,50,14.1c17.5,1.4,36.3,1.2,53.6-1.7
			c3.5-0.6,3.3-6.3-0.3-6.3c-16.8-0.1-33.4,2.1-50.2,1.1c-16.2-1-31.8-4.5-46.5-11.7c-13.5-6.6-26.4-15.1-41.6-17.1
			c-14.3-1.8-28.1,3.2-41.4,7.7c-16,5.4-32.4,9.6-49.1,12.5c-16.4,2.9-31,2.9-46-4.8c-11.9-6-22.5-14.1-34.5-19.8
			c-11.2-5.3-23-7.5-35.4-6.1C278.4,48,252.5,67.2,222,68.9c-1.2,0.1-1.1,2.2,0.1,2.2c26.7-0.4,50-14.1,75.6-19.7
			C311.9,48.3,325.8,48.9,339.2,54.9z"/>
		<path class="st11" d="M559.6,36.3c-13.5-6.6-26.4-15.1-41.6-17.1c-14.3-1.8-28.1,3.2-41.4,7.7c-16,5.4-32.4,9.6-49.1,12.5
			c-16.4,2.9-31,2.9-46-4.8c-11.9-6-22.5-14.1-34.5-19.8c-11.2-5.3-23-7.5-35.4-6.1c-30.1,3.3-56.1,22.5-86.6,24.2
			c-1.2,0.1-1.1,2.2,0.1,2.2c26.7-0.4,50-14.1,75.6-19.7c14.2-3.1,28.2-2.5,41.5,3.6c12.2,5.6,22.7,14.2,34.5,20.5
			c11.7,6.3,23.6,9.4,37,8.6c16.2-1.1,32.6-5.1,48.3-9.4c15.3-4.3,30.5-11.5,46.5-12.6c16.4-1.1,30.5,7.5,44.5,14.8
			c15.8,8.1,32.3,12.7,50,14.1c17.5,1.4,36.3,1.2,53.6-1.7c3.5-0.6,3.3-6.3-0.3-6.3c-16.8-0.1-33.4,2.1-50.2,1.1
			C589.9,46.9,574.3,43.4,559.6,36.3z"/>
		<path class="st11" d="M296.3,123.9c14.2-3.1,28.2-2.5,41.5,3.6c12.2,5.6,22.7,14.2,34.5,20.5c11.7,6.3,23.6,9.4,37,8.6
			c16.2-1.1,32.6-5.1,48.3-9.4c15.3-4.3,30.5-11.5,46.5-12.6c16.4-1.1,30.5,7.5,44.5,14.8c15.8,8.1,32.3,12.7,50,14.1
			c17.5,1.4,36.3,1.2,53.6-1.7c3.5-0.6,3.3-6.3-0.3-6.3c-16.8-0.1-33.4,2.1-50.2,1.1c-16.2-1-31.8-4.5-46.5-11.7
			c-13.5-6.6-26.4-15.1-41.6-17.1c-14.3-1.8-28.1,3.2-41.4,7.7c-16,5.4-32.4,9.6-49.1,12.5c-16.4,2.9-31,2.9-46-4.8
			c-11.9-6-22.5-14.1-34.5-19.8c-11.2-5.3-23-7.5-35.4-6.1c-30.1,3.3-56.1,22.5-86.6,24.2c-1.2,0.1-1.1,2.2,0.1,2.2
			C247.3,143.2,270.7,129.4,296.3,123.9z"/>
		<path class="st11" d="M558.2,108.8c-13.5-6.6-26.4-15.1-41.6-17.1c-14.3-1.8-28.1,3.2-41.4,7.7c-16,5.4-32.4,9.6-49.1,12.5
			c-16.4,2.9-31,2.9-46-4.8c-11.9-6-22.5-14.1-34.5-19.8c-11.2-5.3-23-7.5-35.4-6.1c-30.1,3.3-56.1,22.5-86.6,24.2
			c-1.2,0.1-1.1,2.2,0.1,2.2c26.7-0.4,50-14.1,75.6-19.7c14.2-3.1,28.2-2.5,41.5,3.6c12.2,5.6,22.7,14.2,34.5,20.5
			c11.7,6.3,23.6,9.4,37,8.6c16.2-1.1,32.6-5.1,48.3-9.4c15.3-4.3,30.5-11.5,46.5-12.6c16.4-1.1,30.5,7.5,44.5,14.8
			c15.8,8.1,32.3,12.7,50,14.1c17.5,1.4,36.3,1.2,53.6-1.7c3.5-0.6,3.3-6.3-0.3-6.3c-16.8-0.1-33.4,2.1-50.2,1.1
			C588.5,119.4,572.8,115.9,558.2,108.8z"/>
		<path class="st11" d="M214.5,215.6c26.7-0.4,50-14.1,75.6-19.7c14.2-3.1,28.2-2.5,41.5,3.6c12.2,5.6,22.7,14.2,34.5,20.5
			c11.7,6.3,23.6,9.4,37,8.6c16.2-1.1,32.6-5.1,48.3-9.4c15.3-4.3,30.5-11.5,46.5-12.6c16.4-1.1,30.5,7.5,44.5,14.8
			c15.8,8.1,32.3,12.7,50,14.1c17.5,1.4,36.3,1.2,53.6-1.7c3.5-0.6,3.3-6.3-0.3-6.3c-16.8-0.1-33.4,2.1-50.2,1.1
			c-16.2-1-31.8-4.5-46.5-11.7c-13.5-6.6-26.4-15.1-41.6-17.1c-14.3-1.8-28.1,3.2-41.4,7.7c-16,5.4-32.4,9.6-49.1,12.5
			c-16.4,2.9-31,2.9-46-4.8c-11.9-6-22.5-14.1-34.5-19.8c-11.2-5.3-23-7.5-35.4-6.1c-30.1,3.3-56.1,22.5-86.6,24.2
			C213.2,213.5,213.3,215.6,214.5,215.6z"/>
		<path class="st11" d="M217.6,179.6c26.7-0.4,50-14.1,75.6-19.7c14.2-3.1,28.2-2.5,41.5,3.6c12.2,5.6,22.7,14.2,34.5,20.5
			c11.7,6.3,23.6,9.4,37,8.6c16.2-1.1,32.6-5.1,48.3-9.4c15.3-4.3,30.5-11.5,46.5-12.6c16.4-1.1,30.5,7.5,44.5,14.8
			c15.8,8.1,32.3,12.7,50,14.1c17.5,1.4,36.3,1.2,53.6-1.7c3.5-0.6,3.3-6.3-0.3-6.3c-16.8-0.1-33.4,2.1-50.2,1.1
			c-16.2-1-31.8-4.5-46.5-11.7c-13.5-6.6-26.4-15.1-41.6-17.1c-14.3-1.8-28.1,3.2-41.4,7.7c-16,5.4-32.4,9.6-49.1,12.5
			c-16.4,2.9-31,2.9-46-4.8c-11.9-6-22.5-14.1-34.5-19.8c-11.2-5.3-23-7.5-35.4-6.1c-30.1,3.3-56.1,22.5-86.6,24.2
			C216.2,177.5,216.3,179.6,217.6,179.6z"/>
		<path class="st11" d="M325.4,271.6c12.2,5.6,22.7,14.2,34.5,20.5c11.7,6.3,23.6,9.4,37,8.6c16.2-1.1,32.6-5.1,48.3-9.4
			c15.3-4.3,30.5-11.5,46.5-12.6c16.4-1.1,30.5,7.5,44.5,14.8c15.8,8.1,32.3,12.7,50,14.1c17.5,1.4,36.3,1.2,53.6-1.7
			c3.5-0.6,3.3-6.3-0.3-6.3c-16.8-0.1-33.4,2.1-50.2,1.1c-16.2-1-31.8-4.5-46.5-11.7c-13.5-6.6-26.4-15.1-41.6-17.1
			c-14.3-1.8-28.1,3.2-41.4,7.7c-16,5.4-32.4,9.6-49.1,12.5c-16.4,2.9-31,2.9-46-4.8c-11.9-6-22.5-14.1-34.5-19.8
			c-11.2-5.3-23-7.5-35.4-6.1c-30.1,3.3-56.1,22.5-86.6,24.2c-1.2,0.1-1.1,2.2,0.1,2.2c26.7-0.4,50-14.1,75.6-19.7
			C298.1,265,312.1,265.5,325.4,271.6z"/>
		<path class="st11" d="M211.4,251.7c26.7-0.4,50-14.1,75.6-19.7c14.2-3.1,28.2-2.5,41.5,3.6c12.2,5.6,22.7,14.2,34.5,20.5
			c11.7,6.3,23.6,9.4,37,8.6c16.2-1.1,32.6-5.1,48.3-9.4c15.3-4.3,30.5-11.5,46.5-12.6c16.4-1.1,30.5,7.5,44.5,14.8
			c15.8,8.1,32.3,12.7,50,14.1c17.5,1.4,36.3,1.2,53.6-1.7c3.5-0.6,3.3-6.3-0.3-6.3c-16.8-0.1-33.4,2.1-50.2,1.1
			c-16.2-1-31.8-4.5-46.5-11.7c-13.5-6.6-26.4-15.1-41.6-17.1c-14.3-1.8-28.1,3.2-41.4,7.7c-16,5.4-32.4,9.6-49.1,12.5
			c-16.4,2.9-31,2.9-46-4.8c-11.9-6-22.5-14.1-34.5-19.8c-11.2-5.3-23-7.5-35.4-6.1c-30.1,3.3-56.1,22.5-86.6,24.2
			C210.1,249.6,210.2,251.7,211.4,251.7z"/>
		<path class="st11" d="M327.8,344.4c12.2,5.6,22.7,14.2,34.5,20.5c11.7,6.3,23.6,9.4,37,8.6c16.2-1.1,32.6-5.1,48.3-9.4
			c15.3-4.3,30.5-11.5,46.5-12.6c16.4-1.1,30.5,7.5,44.5,14.8c15.8,8.1,32.3,12.7,50,14.1c17.5,1.4,36.3,1.2,53.6-1.7
			c3.5-0.6,3.3-6.3-0.3-6.3c-16.8-0.1-33.4,2.1-50.2,1.1c-16.2-1-31.8-4.5-46.5-11.7c-13.5-6.6-26.4-15.1-41.6-17.1
			c-14.3-1.8-28.1,3.2-41.4,7.7c-16,5.4-32.4,9.6-49.1,12.5c-16.4,2.9-31,2.9-46-4.8c-11.9-6-22.5-14.1-34.5-19.8
			c-11.2-5.3-23-7.5-35.4-6.1c-30.1,3.3-56.1,22.5-86.6,24.2c-1.2,0.1-1.1,2.2,0.1,2.2c26.7-0.4,50-14.1,75.6-19.7
			C300.5,337.8,314.4,338.3,327.8,344.4z"/>
		<path class="st11" d="M548.2,325.8c-13.5-6.6-26.4-15.1-41.6-17.1c-14.3-1.8-28.1,3.2-41.4,7.7c-16,5.4-32.4,9.6-49.1,12.5
			c-16.4,2.9-31,2.9-46-4.8c-11.9-6-22.5-14.1-34.5-19.8c-11.2-5.3-23-7.5-35.4-6.1c-30.1,3.3-56.1,22.5-86.6,24.2
			c-1.2,0.1-1.1,2.2,0.1,2.2c26.7-0.4,50-14.1,75.6-19.7c14.2-3.1,28.2-2.5,41.5,3.6c12.2,5.6,22.7,14.2,34.5,20.5
			c11.7,6.3,23.6,9.4,37,8.6c16.2-1.1,32.6-5.1,48.3-9.4c15.3-4.3,30.5-11.5,46.5-12.6c16.4-1.1,30.5,7.5,44.5,14.8
			c15.8,8.1,32.3,12.7,50,14.1c17.5,1.4,36.3,1.2,53.6-1.7c3.5-0.6,3.3-6.3-0.3-6.3c-16.8-0.1-33.4,2.1-50.2,1.1
			C578.5,336.4,562.9,332.9,548.2,325.8z"/>
		<path class="st11" d="M291.9,413.6c14.2-3.1,28.2-2.5,41.5,3.6c12.2,5.6,22.7,14.2,34.5,20.5c11.7,6.3,23.6,9.4,37,8.6
			c16.2-1.1,32.6-5.1,48.3-9.4c15.3-4.3,30.5-11.5,46.5-12.6c16.4-1.1,30.5,7.5,44.5,14.8c15.8,8.1,32.3,12.7,50,14.1
			c17.5,1.4,36.3,1.2,53.6-1.7c3.5-0.6,3.3-6.3-0.3-6.3c-16.8-0.1-33.4,2.1-50.2,1.1c-16.2-1-31.8-4.5-46.5-11.7
			c-13.5-6.6-26.4-15.1-41.6-17.1c-14.3-1.8-28.1,3.2-41.4,7.7c-16,5.4-32.4,9.6-49.1,12.5c-16.4,2.9-31,2.9-46-4.8
			c-11.9-6-22.5-14.1-34.5-19.8c-11.2-5.3-23-7.5-35.4-6.1c-30.1,3.3-56.1,22.5-86.6,24.2c-1.2,0.1-1.1,2.2,0.1,2.2
			C243,432.9,266.3,419.1,291.9,413.6z"/>
		<path class="st11" d="M553.9,398.5c-13.5-6.6-26.4-15.1-41.6-17.1c-14.3-1.8-28.1,3.2-41.4,7.7c-16,5.4-32.4,9.6-49.1,12.5
			c-16.4,2.9-31,2.9-46-4.8c-11.9-6-22.5-14.1-34.5-19.8c-11.2-5.3-23-7.5-35.4-6.1c-30.1,3.3-56.1,22.5-86.6,24.2
			c-1.2,0.1-1.1,2.2,0.1,2.2c26.7-0.4,50-14.1,75.6-19.7c14.2-3.1,28.2-2.5,41.5,3.6c12.2,5.6,22.7,14.2,34.5,20.5
			c11.7,6.3,23.6,9.4,37,8.6c16.2-1.1,32.6-5.1,48.3-9.4c15.3-4.3,30.5-11.5,46.5-12.6c16.4-1.1,30.5,7.5,44.5,14.8
			c15.8,8.1,32.3,12.7,50,14.1c17.5,1.4,36.3,1.2,53.6-1.7c3.5-0.6,3.3-6.3-0.3-6.3c-16.8-0.1-33.4,2.1-50.2,1.1
			C584.1,409.1,568.5,405.6,553.9,398.5z"/>
		<path class="st11" d="M210.2,505.3c26.7-0.4,50-14.1,75.6-19.7c14.2-3.1,28.2-2.5,41.5,3.6c12.2,5.6,22.7,14.2,34.5,20.5
			c11.7,6.3,23.6,9.4,37,8.6c16.2-1.1,32.6-5.1,48.3-9.4c15.3-4.3,30.5-11.5,46.5-12.6c16.4-1.1,30.5,7.5,44.5,14.8
			c15.8,8.1,32.3,12.7,50,14.1c17.5,1.4,36.3,1.2,53.6-1.7c3.5-0.6,3.3-6.3-0.3-6.3c-16.8-0.1-33.4,2.1-50.2,1.1
			c-16.2-1-31.8-4.5-46.5-11.7c-13.5-6.6-26.4-15.1-41.6-17.1c-14.3-1.8-28.1,3.2-41.4,7.7c-16,5.4-32.4,9.6-49.1,12.5
			c-16.4,2.9-31,2.9-46-4.8c-11.9-6-22.5-14.1-34.5-19.8c-11.2-5.3-23-7.5-35.4-6.1c-30.1,3.3-56.1,22.5-86.6,24.2
			C208.8,503.2,208.9,505.3,210.2,505.3z"/>
		<path class="st11" d="M213.2,469.3c26.7-0.4,50-14.1,75.6-19.7c14.2-3.1,28.2-2.5,41.5,3.6c12.2,5.6,22.7,14.2,34.5,20.5
			c11.7,6.3,23.6,9.4,37,8.6c16.2-1.1,32.6-5.1,48.3-9.4c15.3-4.3,30.5-11.5,46.5-12.6c16.4-1.1,30.5,7.5,44.5,14.8
			c15.8,8.1,32.3,12.7,50,14.1c17.5,1.4,36.3,1.2,53.6-1.7c3.5-0.6,3.3-6.3-0.3-6.3c-16.8-0.1-33.4,2.1-50.2,1.1
			c-16.2-1-31.8-4.5-46.5-11.7c-13.5-6.6-26.4-15.1-41.6-17.1c-14.3-1.8-28.1,3.2-41.4,7.7c-16,5.4-32.4,9.6-49.1,12.5
			c-16.4,2.9-31,2.9-46-4.8c-11.9-6-22.5-14.1-34.5-19.8c-11.2-5.3-23-7.5-35.4-6.1c-30.1,3.3-56.1,22.5-86.6,24.2
			C211.9,467.2,212,469.3,213.2,469.3z"/>
		<path class="st11" d="M321.1,561.3c12.2,5.6,22.7,14.2,34.5,20.5c11.7,6.3,23.6,9.4,37,8.6c16.2-1.1,32.6-5.1,48.3-9.4
			c15.3-4.3,30.5-11.5,46.5-12.6c16.4-1.1,30.5,7.5,44.5,14.8c15.8,8.1,32.3,12.7,50,14.1c17.5,1.4,36.3,1.2,53.6-1.7
			c3.5-0.6,3.3-6.3-0.3-6.3c-16.8-0.1-33.4,2.1-50.2,1.1c-16.2-1-31.8-4.5-46.5-11.7c-13.5-6.6-26.4-15.1-41.6-17.1
			c-14.3-1.8-28.1,3.2-41.4,7.7c-16,5.4-32.4,9.6-49.1,12.5c-16.4,2.9-31,2.9-46-4.8c-11.9-6-22.5-14.1-34.5-19.8
			c-11.2-5.3-23-7.5-35.4-6.1c-30.1,3.3-56.1,22.5-86.6,24.2c-1.2,0.1-1.1,2.2,0.1,2.2c26.7-0.4,50-14.1,75.6-19.7
			C293.8,554.7,307.7,555.2,321.1,561.3z"/>
		<path class="st11" d="M207.1,541.4c26.7-0.4,50-14.1,75.6-19.7c14.2-3.1,28.2-2.5,41.5,3.6c12.2,5.6,22.7,14.2,34.5,20.5
			c11.7,6.3,23.6,9.4,37,8.6c16.2-1.1,32.6-5.1,48.3-9.4c15.3-4.3,30.5-11.5,46.5-12.6c16.4-1.1,30.5,7.5,44.5,14.8
			c15.8,8.1,32.3,12.7,50,14.1c17.5,1.4,36.3,1.2,53.6-1.7c3.5-0.6,3.3-6.3-0.3-6.3c-16.8-0.1-33.4,2.1-50.2,1.1
			c-16.2-1-31.8-4.5-46.5-11.7c-13.5-6.6-26.4-15.1-41.6-17.1c-14.3-1.8-28.1,3.2-41.4,7.7c-16,5.4-32.4,9.6-49.1,12.5
			c-16.4,2.9-31,2.9-46-4.8c-11.9-6-22.5-14.1-34.5-19.8c-11.2-5.3-23-7.5-35.4-6.1c-30.1,3.3-56.1,22.5-86.6,24.2
			C205.7,539.3,205.8,541.4,207.1,541.4z"/>
		<path class="st11" d="M323.4,634.1c12.2,5.6,22.7,14.2,34.5,20.5c11.7,6.3,23.6,9.4,37,8.6c16.2-1.1,32.6-5.1,48.3-9.4
			c15.3-4.3,30.5-11.5,46.5-12.6c16.4-1.1,30.5,7.5,44.5,14.8c15.8,8.1,32.3,12.7,50,14.1c17.5,1.4,36.3,1.2,53.6-1.7
			c3.5-0.6,3.3-6.3-0.3-6.3c-16.8-0.1-33.4,2.1-50.2,1.1c-16.2-1-31.8-4.5-46.5-11.7c-13.5-6.6-26.4-15.1-41.6-17.1
			c-14.3-1.8-28.1,3.2-41.4,7.7c-16,5.4-32.4,9.6-49.1,12.5c-16.4,2.9-31,2.9-46-4.8c-11.9-6-22.5-14.1-34.5-19.8
			c-11.2-5.3-23-7.5-35.4-6.1c-30.1,3.3-56.1,22.5-86.6,24.2c-1.2,0.1-1.1,2.2,0.1,2.2c26.7-0.4,50-14.1,75.6-19.7
			C296.1,627.5,310.1,628,323.4,634.1z"/>
		<path class="st11" d="M543.9,615.5c-13.5-6.6-26.4-15.1-41.6-17.1c-14.3-1.8-28.1,3.2-41.4,7.7c-16,5.4-32.4,9.6-49.1,12.5
			c-16.4,2.9-31,2.9-46-4.8c-11.9-6-22.5-14.1-34.5-19.8c-11.2-5.3-23-7.5-35.4-6.1c-30.1,3.3-56.1,22.5-86.6,24.2
			c-1.2,0.1-1.1,2.2,0.1,2.2c26.7-0.4,50-14.1,75.6-19.7c14.2-3.1,28.2-2.5,41.5,3.6c12.2,5.6,22.7,14.2,34.5,20.5
			c11.7,6.3,23.6,9.4,37,8.6c16.2-1.1,32.6-5.1,48.3-9.4c15.3-4.3,30.5-11.5,46.5-12.6c16.4-1.1,30.5,7.5,44.5,14.8
			c15.8,8.1,32.3,12.7,50,14.1c17.5,1.4,36.3,1.2,53.6-1.7c3.5-0.6,3.3-6.3-0.3-6.3c-16.8-0.1-33.4,2.1-50.2,1.1
			C574.2,626.1,558.5,622.6,543.9,615.5z"/>
		<path class="st11" d="M280.5,703.1c14.2-3.1,28.2-2.5,41.5,3.6c12.2,5.6,22.7,14.2,34.5,20.5c11.7,6.3,23.6,9.4,37,8.6
			c16.2-1.1,32.6-5.1,48.3-9.4c15.3-4.3,30.5-11.5,46.5-12.6c16.4-1.1,30.5,7.5,44.5,14.8c15.8,8.1,32.3,12.7,50,14.1
			c17.5,1.4,36.3,1.2,53.6-1.7c3.5-0.6,3.3-6.3-0.3-6.3c-16.8-0.1-33.4,2.1-50.2,1.1c-16.2-1-31.8-4.5-46.5-11.7
			c-13.5-6.6-26.4-15.1-41.6-17.1c-14.3-1.8-28.1,3.2-41.4,7.7c-16,5.4-32.4,9.6-49.1,12.5c-16.4,2.9-31,2.9-46-4.8
			c-11.9-6-22.5-14.1-34.5-19.8c-11.2-5.3-23-7.5-35.4-6.1c-30.1,3.3-56.1,22.5-86.6,24.2c-1.2,0.1-1.1,2.2,0.1,2.2
			C231.6,722.4,254.9,708.6,280.5,703.1z"/>
		<path class="st11" d="M542.5,688c-13.5-6.6-26.4-15.1-41.6-17.1c-14.3-1.8-28.1,3.2-41.4,7.7c-16,5.4-32.4,9.6-49.1,12.5
			c-16.4,2.9-31,2.9-46-4.8c-11.9-6-22.5-14.1-34.5-19.8c-11.2-5.3-23-7.5-35.4-6.1c-30.1,3.3-56.1,22.5-86.6,24.2
			c-1.2,0.1-1.1,2.2,0.1,2.2c26.7-0.4,50-14.1,75.6-19.7c14.2-3.1,28.2-2.5,41.5,3.6c12.2,5.6,22.7,14.2,34.5,20.5
			c11.7,6.3,23.6,9.4,37,8.6c16.2-1.1,32.6-5.1,48.3-9.4c15.3-4.3,30.5-11.5,46.5-12.6c16.4-1.1,30.5,7.5,44.5,14.8
			c15.8,8.1,32.3,12.7,50,14.1c17.5,1.4,36.3,1.2,53.6-1.7c3.5-0.6,3.3-6.3-0.3-6.3c-16.8-0.1-33.4,2.1-50.2,1.1
			C572.7,698.6,557.1,695.1,542.5,688z"/>
		<path class="st11" d="M198.8,794.8c26.7-0.4,50-14.1,75.6-19.7c14.2-3.1,28.2-2.5,41.5,3.6c12.2,5.6,22.7,14.2,34.5,20.5
			c11.7,6.3,23.6,9.4,37,8.6c16.2-1.1,32.6-5.1,48.3-9.4c15.3-4.3,30.5-11.5,46.5-12.6c16.4-1.1,30.5,7.5,44.5,14.8
			c15.8,8.1,32.3,12.7,50,14.1c17.5,1.4,36.3,1.2,53.6-1.7c3.5-0.6,3.3-6.3-0.3-6.3c-16.8-0.1-33.4,2.1-50.2,1.1
			c-16.2-1-31.8-4.5-46.5-11.7c-13.5-6.6-26.4-15.1-41.6-17.1c-14.3-1.8-28.1,3.2-41.4,7.7c-16,5.4-32.4,9.6-49.1,12.5
			c-16.4,2.9-31,2.9-46-4.8c-11.9-6-22.5-14.1-34.5-19.8c-11.2-5.3-23-7.5-35.4-6.1c-30.1,3.3-56.1,22.5-86.6,24.2
			C197.4,792.7,197.5,794.8,198.8,794.8z"/>
		<path class="st11" d="M201.8,758.8c26.7-0.4,50-14.1,75.6-19.7c14.2-3.1,28.2-2.5,41.5,3.6c12.2,5.6,22.7,14.2,34.5,20.5
			c11.7,6.3,23.6,9.4,37,8.6c16.2-1.1,32.6-5.1,48.3-9.4c15.3-4.3,30.5-11.5,46.5-12.6c16.4-1.1,30.5,7.5,44.5,14.8
			c15.8,8.1,32.3,12.7,50,14.1c17.5,1.4,36.3,1.2,53.6-1.7c3.5-0.6,3.3-6.3-0.3-6.3c-16.8-0.1-33.4,2.1-50.2,1.1
			c-16.2-1-31.8-4.5-46.5-11.7c-13.5-6.6-26.4-15.1-41.6-17.1c-14.3-1.8-28.1,3.2-41.4,7.7c-16,5.4-32.4,9.6-49.1,12.5
			c-16.4,2.9-31,2.9-46-4.8c-11.9-6-22.5-14.1-34.5-19.8c-11.2-5.3-23-7.5-35.4-6.1c-30.1,3.3-56.1,22.5-86.6,24.2
			C200.5,756.7,200.6,758.8,201.8,758.8z"/>
		<path class="st11" d="M309.7,850.8c12.2,5.6,22.7,14.2,34.5,20.5c11.7,6.3,23.6,9.4,37,8.6c16.2-1.1,32.6-5.1,48.3-9.4
			c15.3-4.3,30.5-11.5,46.5-12.6c16.4-1.1,30.5,7.5,44.5,14.8c15.8,8.1,32.3,12.7,50,14.1c17.5,1.4,36.3,1.2,53.6-1.7
			c3.5-0.6,3.3-6.3-0.3-6.3c-16.8-0.1-33.4,2.1-50.2,1.1c-16.2-1-31.8-4.5-46.5-11.7c-13.5-6.6-26.4-15.1-41.6-17.1
			c-14.3-1.8-28.1,3.2-41.4,7.7c-16,5.4-32.4,9.6-49.1,12.5c-16.4,2.9-31,2.9-46-4.8c-11.9-6-22.5-14.1-34.5-19.8
			c-11.2-5.3-23-7.5-35.4-6.1c-30.1,3.3-56.1,22.5-86.6,24.2c-1.2,0.1-1.1,2.2,0.1,2.2c26.7-0.4,50-14.1,75.6-19.7
			C282.4,844.2,296.4,844.7,309.7,850.8z"/>
		<path class="st11" d="M195.7,830.9c26.7-0.4,50-14.1,75.6-19.7c14.2-3.1,28.2-2.5,41.5,3.6c12.2,5.6,22.7,14.2,34.5,20.5
			c11.7,6.3,23.6,9.4,37,8.6c16.2-1.1,32.6-5.1,48.3-9.4c15.3-4.3,30.5-11.5,46.5-12.6c16.4-1.1,30.5,7.5,44.5,14.8
			c15.8,8.1,32.3,12.7,50,14.1c17.5,1.4,36.3,1.2,53.6-1.7c3.5-0.6,3.3-6.3-0.3-6.3c-16.8-0.1-33.4,2.1-50.2,1.1
			c-16.2-1-31.8-4.5-46.5-11.7c-13.5-6.6-26.4-15.1-41.6-17.1c-14.3-1.8-28.1,3.2-41.4,7.7c-16,5.4-32.4,9.6-49.1,12.5
			c-16.4,2.9-31,2.9-46-4.8c-11.9-6-22.5-14.1-34.5-19.8c-11.2-5.3-23-7.5-35.4-6.1c-30.1,3.3-56.1,22.5-86.6,24.2
			C194.4,828.8,194.4,830.9,195.7,830.9z"/>
		<path class="st11" d="M626.1,951.6c-16.8-0.1-33.4,2.1-50.2,1.1c-16.2-1-31.8-4.5-46.5-11.7c-13.5-6.6-26.4-15.1-41.6-17.1
			c-14.3-1.8-28.1,3.2-41.4,7.7c-16,5.4-32.4,9.6-49.1,12.5c-16.4,2.9-31,2.9-46-4.8c-11.9-6-22.5-14.1-34.5-19.8
			c-11.2-5.3-23-7.5-35.4-6.1c-30.1,3.3-56.1,22.5-86.6,24.2c-1.2,0.1-1.1,2.2,0.1,2.2c26.7-0.4,50-14.1,75.6-19.7
			c14.2-3.1,28.2-2.5,41.5,3.6c12.2,5.6,22.7,14.2,34.5,20.5c11.7,6.3,23.6,9.4,37,8.6c16.2-1.1,32.6-5.1,48.3-9.4
			c15.3-4.3,30.5-11.5,46.5-12.6c16.4-1.1,30.5,7.5,44.5,14.8c15.8,8.1,32.3,12.7,50,14.1c17.5,1.4,36.3,1.2,53.6-1.7
			C629.9,957.3,629.8,951.6,626.1,951.6z"/>
		<path class="st11" d="M532.5,904.9c-13.5-6.6-26.4-15.1-41.6-17.1c-14.3-1.8-28.1,3.2-41.4,7.7c-16,5.4-32.4,9.6-49.1,12.5
			c-16.4,2.9-31,2.9-46-4.8c-11.9-6-22.5-14.1-34.5-19.8c-11.2-5.3-23-7.5-35.4-6.1c-30.1,3.3-56.1,22.5-86.6,24.2
			c-1.2,0.1-1.1,2.2,0.1,2.2c26.7-0.4,50-14.1,75.6-19.7c14.2-3.1,28.2-2.5,41.5,3.6c12.2,5.6,22.7,14.2,34.5,20.5
			c11.7,6.3,23.6,9.4,37,8.6c16.2-1.1,32.6-5.1,48.3-9.4c15.3-4.3,30.5-11.5,46.5-12.6c16.4-1.1,30.5,7.5,44.5,14.8
			c15.8,8.1,32.3,12.7,50,14.1c17.5,1.4,36.3,1.2,53.6-1.7c3.5-0.6,3.3-6.3-0.3-6.3c-16.8-0.1-33.4,2.1-50.2,1.1
			C562.8,915.6,547.2,912.1,532.5,904.9z"/>
	</g>
</g>
</svg>
