<?xml version="1.0" encoding="utf-8"?>
<!-- Generator: Adobe Illustrator 25.3.1, SVG Export Plug-In . SVG Version: 6.00 Build 0)  -->
<svg version="1.1" xmlns="http://www.w3.org/2000/svg" xmlns:xlink="http://www.w3.org/1999/xlink" x="0px" y="0px"
	 viewBox="0 0 310.72 122.44" style="enable-background:new 0 0 310.72 122.44;" xml:space="preserve">
<style type="text/css">
	.st0{fill:#21409A;}
	.st1{clip-path:url(#SVGID_2_);}
	.st2{fill:#E54E4C;}
	.st3{fill:none;stroke:#E54E4C;stroke-miterlimit:10;}
	.st4{clip-path:url(#SVGID_6_);fill:#F04E4C;}
	.st5{clip-path:url(#SVGID_6_);fill:#B31F24;}
	.st6{clip-path:url(#SVGID_6_);fill:#9093C8;}
	.st7{clip-path:url(#SVGID_8_);fill:#66CAD8;}
	.st8{clip-path:url(#SVGID_8_);fill:#007D84;}
	.st9{clip-path:url(#SVGID_8_);fill:#E54E4C;}
	.st10{clip-path:url(#SVGID_10_);fill:#9093C8;}
	.st11{clip-path:url(#SVGID_10_);fill:#21409A;}
	.st12{clip-path:url(#SVGID_10_);fill:#66CAD8;}
	.st13{fill:#007D84;}
	.st14{fill:#F7F5F2;}
	.st15{fill:#A0DBE3;}
	.st16{fill:#F04E4C;}
	.st17{fill:#FFFFFF;}
	.st18{fill:none;stroke:#DBDAD8;stroke-width:0.9731;stroke-miterlimit:10;}
	.st19{fill:none;stroke:#DBDAD8;stroke-miterlimit:10;}
	.st20{clip-path:url(#SVGID_24_);fill:none;stroke:#ECEAE7;stroke-width:18.7477;stroke-miterlimit:10;}
	.st21{clip-path:url(#SVGID_26_);fill:none;stroke:#ECEAE7;stroke-width:18.0997;stroke-miterlimit:10;}
	.st22{fill:none;stroke:#F04E4C;stroke-miterlimit:10;}
	.st23{clip-path:url(#SVGID_28_);}
	.st24{fill:#2B2A1E;}
	.st25{fill:#ECEAE7;}
	.st26{opacity:0.5;}
	.st27{fill:#66CAD8;}
	.st28{fill:#9093C8;}
	.st29{clip-path:url(#SVGID_38_);fill:#F04E4C;}
	.st30{clip-path:url(#SVGID_38_);fill:#B31F24;}
	.st31{clip-path:url(#SVGID_38_);fill:#9093C8;}
	.st32{clip-path:url(#SVGID_40_);fill:#66CAD8;}
	.st33{clip-path:url(#SVGID_40_);fill:#007D84;}
	.st34{clip-path:url(#SVGID_40_);fill:#F04E4C;}
	.st35{clip-path:url(#SVGID_42_);fill:#9093C8;}
	.st36{clip-path:url(#SVGID_42_);fill:#21409A;}
	.st37{clip-path:url(#SVGID_42_);fill:#66CAD8;}
	.st38{fill:none;stroke:#008080;stroke-miterlimit:10;}
	.st39{clip-path:url(#SVGID_46_);}
	.st40{clip-path:url(#SVGID_48_);}
	.st41{fill:#007D80;}
	.st42{fill:none;stroke:#F04E4C;stroke-width:1.3873;stroke-miterlimit:10;}
	.st43{clip-path:url(#SVGID_50_);}
	.st44{clip-path:url(#SVGID_56_);}
	.st45{fill:none;stroke:#ECEAE7;stroke-miterlimit:10;}
	.st46{clip-path:url(#SVGID_60_);fill:none;stroke:#ECEAE7;stroke-width:16.0892;stroke-miterlimit:10;}
	.st47{fill:#E04E4C;}
	.st48{clip-path:url(#SVGID_62_);}
	.st49{opacity:0.75;fill:#ECEAE7;}
	.st50{clip-path:url(#SVGID_64_);}
	.st51{fill:none;stroke:#FFFFFF;stroke-width:0.762;stroke-miterlimit:10;}
	.st52{clip-path:url(#SVGID_66_);}
	.st53{clip-path:url(#SVGID_72_);fill:#21409A;}
	.st54{fill:none;stroke:#FFFFFF;stroke-width:0.5;stroke-miterlimit:10;}
	.st55{clip-path:url(#SVGID_78_);fill:#F04E4C;}
	.st56{opacity:0.35;}
	.st57{fill:none;stroke:#284280;stroke-width:0.8848;stroke-miterlimit:10;}
	.st58{fill:none;stroke:#2C2A1E;stroke-width:0.8848;stroke-miterlimit:10;}
	.st59{fill:#284280;}
	.st60{fill:#2B807E;}
	.st61{fill:none;stroke:#21409A;stroke-width:0.5;stroke-miterlimit:10;}
	.st62{fill:#2C2A1E;}
	.st63{fill:none;stroke:#FFFFFF;stroke-width:0.8484;stroke-miterlimit:10;}
	.st64{fill:none;stroke:#284280;stroke-miterlimit:10;}
	.st65{fill:none;stroke:#2C2A1E;stroke-miterlimit:10;}
	.st66{clip-path:url(#SVGID_94_);}
	.st67{fill:#EBE9E6;}
	.st68{fill:#E44E4C;}
	.st69{fill:none;stroke:#E44E4C;stroke-miterlimit:10;}
	.st70{fill:#EEACB3;}
	.st71{fill:none;stroke:#EBE9E6;stroke-width:0.9011;stroke-miterlimit:10;}
	.st72{clip-path:url(#SVGID_108_);}
	.st73{clip-path:url(#SVGID_112_);}
	.st74{opacity:0.05;}
	.st75{clip-path:url(#SVGID_116_);}
	.st76{clip-path:url(#SVGID_120_);}
</style>
<g id="Layer_2">
</g>
<g id="Layer_1">
	<path class="st16" d="M196.45,96.73c7.53-2.33,9.31-4.12,13.28-7.45c9.92,17.03,27.24,28.65,44.76,30.13
		c24.33,2.06,46.86-19.83,50.07-47.17c3.24-27.56-12.8-55.79-36.74-62.64c-15.62-4.47-31.7,0.2-43.95,10.98
		c-2.44,1.22-4.78,2.88-6.94,5c-5.55-9-13.47-16.21-22.61-19.86c-17.26-6.89-36.63,0.11-51.3,11.22c-3.03,2.29-5.94,4.79-8.86,7.27
		c-6.7-3.19-14.25-4.1-21.73-2.48c-5.35,1.15-10.06,3.74-14.12,7.28c-3.39-4.04-7.25-7.58-11.36-10.29
		c-17.46-11.5-36.73-7.39-55.17-1.23c-10.44,3.49-18.86,16.07-18.86,16.07c-3.24,7.25-6.76,14.26-7.09,22.63
		c-0.3,7.65,3.24,16.19,6.73,22.53c6.26,11.35,15.4,20.6,26.68,24.73c12.43,4.54,25.33,1.67,35.85-5.9
		c13.3,16.21,36.59,25.33,54.29,19.41c11.81-3.95,19.91-13.56,24.3-25.31C153.67,91.64,169.59,105.04,196.45,96.73z M117.88,62.16
		c0,0-0.01,0-0.01,0c-0.03-0.03-0.06-0.06-0.09-0.1c0.01,0,0.02,0,0.04,0C117.84,62.09,117.86,62.13,117.88,62.16z M119.01,62.17
		C121.21,62.39,120.27,62.41,119.01,62.17L119.01,62.17z M117.59,61.8c-0.11-0.04-0.2-0.08-0.3-0.12c-0.39-0.26-0.89-0.55-1.42-0.83
		C116.27,60.94,117.07,61.28,117.59,61.8z M180.89,59.5c-0.38,0.06-0.77,0.11-1.15,0.17C180.39,59.47,180.85,59.37,180.89,59.5z
		 M214.86,84.15c0.03-0.04,0.06-0.08,0.09-0.12c0.23-0.03,0.39-0.08,0.41-0.14C215.29,84.08,215.11,84.15,214.86,84.15z"/>
</g>
</svg>
